<?xml version="1.0" encoding="UTF-8" standalone="no"?>
<!DOCTYPE svg PUBLIC "-//W3C//DTD SVG 1.1//EN"
 "http://www.w3.org/Graphics/SVG/1.1/DTD/svg11.dtd">
<!-- Generated by graphviz version 2.40.1 (20161225.0304)
 -->
<!-- Title: G Pages: 1 -->
<svg width="553pt" height="534pt"
 viewBox="0.00 0.00 553.46 534.00" xmlns="http://www.w3.org/2000/svg" xmlns:xlink="http://www.w3.org/1999/xlink">
<g id="graph0" class="graph" transform="scale(1 1) rotate(0) translate(4 530)">
<title>G</title>
<polygon fill="#ffffff" stroke="transparent" points="-4,4 -4,-530 549.4649,-530 549.4649,4 -4,4"/>
<!-- A0 -->
<g id="node1" class="node">
<title>A0</title>
<ellipse fill="none" stroke="#000000" cx="292.3419" cy="-515" rx="11" ry="11"/>
</g>
<!-- A1 -->
<g id="node2" class="node">
<title>A1</title>
<path fill="none" stroke="#000000" d="M338.7065,-456C338.7065,-456 245.9773,-456 245.9773,-456 239.9773,-456 233.9773,-450 233.9773,-444 233.9773,-444 233.9773,-432 233.9773,-432 233.9773,-426 239.9773,-420 245.9773,-420 245.9773,-420 338.7065,-420 338.7065,-420 344.7065,-420 350.7065,-426 350.7065,-432 350.7065,-432 350.7065,-444 350.7065,-444 350.7065,-450 344.7065,-456 338.7065,-456"/>
<text text-anchor="middle" x="292.3419" y="-435" font-family="Helvetica,sans-Serif" font-size="10.00" fill="#000000">{pedeDecisaoInicio}</text>
</g>
<!-- A0&#45;&gt;A1 -->
<g id="edge1" class="edge">
<title>A0&#45;&gt;A1</title>
<path fill="none" stroke="#000000" d="M292.3419,-503.9678C292.3419,-494.124 292.3419,-479.2813 292.3419,-466.1664"/>
<polygon fill="#000000" stroke="#000000" points="292.3419,-456.1474 296.842,-466.1473 292.3419,-461.1474 292.342,-466.1474 292.342,-466.1474 292.342,-466.1474 292.3419,-461.1474 287.842,-466.1474 292.3419,-456.1474 292.3419,-456.1474"/>
<text text-anchor="middle" x="308.1729" y="-477" font-family="Helvetica,sans-Serif" font-size="10.00" fill="#000000">[iniciar]</text>
</g>
<!-- A2 -->
<g id="node3" class="node">
<title>A2</title>
<path fill="none" stroke="#000000" d="M189.7155,-372C189.7155,-372 96.9683,-372 96.9683,-372 90.9683,-372 84.9683,-366 84.9683,-360 84.9683,-360 84.9683,-348 84.9683,-348 84.9683,-342 90.9683,-336 96.9683,-336 96.9683,-336 189.7155,-336 189.7155,-336 195.7155,-336 201.7155,-342 201.7155,-348 201.7155,-348 201.7155,-360 201.7155,-360 201.7155,-366 195.7155,-372 189.7155,-372"/>
<text text-anchor="middle" x="143.3419" y="-351" font-family="Helvetica,sans-Serif" font-size="10.00" fill="#000000">{pedeConfiguracao}</text>
</g>
<!-- A1&#45;&gt;A2 -->
<g id="edge2" class="edge">
<title>A1&#45;&gt;A2</title>
<path fill="none" stroke="#000000" d="M260.3776,-419.9799C238.1614,-407.4553 208.3559,-390.6522 184.3839,-377.1378"/>
<polygon fill="#000000" stroke="#000000" points="175.51,-372.135 186.431,-373.126 179.8655,-374.5905 184.2211,-377.046 184.2211,-377.046 184.2211,-377.046 179.8655,-374.5905 182.0111,-380.966 175.51,-372.135 175.51,-372.135"/>
<text text-anchor="middle" x="254.0114" y="-393" font-family="Helvetica,sans-Serif" font-size="10.00" fill="#000000">[iniciarJogo]</text>
</g>
<!-- A3 -->
<g id="node4" class="node">
<title>A3</title>
<path fill="none" stroke="#000000" d="M194.166,-288C194.166,-288 92.5178,-288 92.5178,-288 86.5178,-288 80.5178,-282 80.5178,-276 80.5178,-276 80.5178,-264 80.5178,-264 80.5178,-258 86.5178,-252 92.5178,-252 92.5178,-252 194.166,-252 194.166,-252 200.166,-252 206.166,-258 206.166,-264 206.166,-264 206.166,-276 206.166,-276 206.166,-282 200.166,-288 194.166,-288"/>
<text text-anchor="middle" x="143.3419" y="-267" font-family="Helvetica,sans-Serif" font-size="10.00" fill="#000000">{pedeDecisaoJogada}</text>
</g>
<!-- A1&#45;&gt;A3 -->
<g id="edge3" class="edge">
<title>A1&#45;&gt;A3</title>
<path fill="none" stroke="#000000" d="M233.8791,-432.855C159.0234,-424.9168 35.6487,-406.82 7.9849,-372 -18.7286,-338.3761 29.0093,-309.9388 74.9915,-291.7025"/>
<polygon fill="#000000" stroke="#000000" points="84.4452,-288.0803 76.7173,-295.8604 79.7762,-289.8693 75.1072,-291.6583 75.1072,-291.6583 75.1072,-291.6583 79.7762,-289.8693 73.4971,-287.4562 84.4452,-288.0803 84.4452,-288.0803"/>
<text text-anchor="middle" x="42.5204" y="-351" font-family="Helvetica,sans-Serif" font-size="10.00" fill="#000000">[continuarJogo]</text>
</g>
<!-- A4 -->
<g id="node5" class="node">
<title>A4</title>
<path fill="none" stroke="#000000" d="M405.4317,-372C405.4317,-372 331.252,-372 331.252,-372 325.252,-372 319.252,-366 319.252,-360 319.252,-360 319.252,-348 319.252,-348 319.252,-342 325.252,-336 331.252,-336 331.252,-336 405.4317,-336 405.4317,-336 411.4317,-336 417.4317,-342 417.4317,-348 417.4317,-348 417.4317,-360 417.4317,-360 417.4317,-366 411.4317,-372 405.4317,-372"/>
<text text-anchor="middle" x="368.3419" y="-351" font-family="Helvetica,sans-Serif" font-size="10.00" fill="#000000">{assisteJogada}</text>
</g>
<!-- A1&#45;&gt;A4 -->
<g id="edge4" class="edge">
<title>A1&#45;&gt;A4</title>
<path fill="none" stroke="#000000" d="M325.8036,-419.8807C333.211,-414.7925 340.5649,-408.7719 346.3419,-402 351.4138,-396.0546 355.5473,-388.746 358.8051,-381.6415"/>
<polygon fill="#000000" stroke="#000000" points="362.7106,-372.2271 363.0353,-383.1882 360.7947,-376.8455 358.8788,-381.4638 358.8788,-381.4638 358.8788,-381.4638 360.7947,-376.8455 354.7222,-379.7395 362.7106,-372.2271 362.7106,-372.2271"/>
<text text-anchor="middle" x="380.6224" y="-393" font-family="Helvetica,sans-Serif" font-size="10.00" fill="#000000">[verReplay]</text>
</g>
<!-- A2&#45;&gt;A2 -->
<g id="edge7" class="edge">
<title>A2&#45;&gt;A2</title>
<path fill="none" stroke="#000000" d="M201.7967,-361.4131C212.2363,-360.4495 219.5284,-357.9785 219.5284,-354 219.5284,-351.5134 216.6799,-349.6157 211.9948,-348.3069"/>
<polygon fill="#000000" stroke="#000000" points="201.7967,-346.5869 212.4059,-343.8127 206.7271,-347.4185 211.6575,-348.25 211.6575,-348.25 211.6575,-348.25 206.7271,-347.4185 210.909,-352.6874 201.7967,-346.5869 201.7967,-346.5869"/>
<text text-anchor="middle" x="260.6504" y="-351" font-family="Helvetica,sans-Serif" font-size="10.00" fill="#000000">[adicionarJogador]</text>
</g>
<!-- A2&#45;&gt;A3 -->
<g id="edge8" class="edge">
<title>A2&#45;&gt;A3</title>
<path fill="none" stroke="#000000" d="M143.3419,-335.7733C143.3419,-324.8758 143.3419,-310.7946 143.3419,-298.4587"/>
<polygon fill="#000000" stroke="#000000" points="143.3419,-288.1912 147.842,-298.1911 143.3419,-293.1912 143.342,-298.1912 143.342,-298.1912 143.342,-298.1912 143.3419,-293.1912 138.842,-298.1912 143.3419,-288.1912 143.3419,-288.1912"/>
<text text-anchor="middle" x="184.4639" y="-309" font-family="Helvetica,sans-Serif" font-size="10.00" fill="#000000">[adicionarJogador]</text>
</g>
<!-- A3&#45;&gt;A3 -->
<g id="edge11" class="edge">
<title>A3&#45;&gt;A3</title>
<path fill="none" stroke="#000000" d="M206.4414,-273.6597C216.9812,-273.1476 224.2539,-271.9277 224.2539,-270 224.2539,-268.7952 221.413,-267.8668 216.7091,-267.215"/>
<polygon fill="#000000" stroke="#000000" points="206.4414,-266.3403 216.7873,-262.7054 211.4233,-266.7648 216.4053,-267.1892 216.4053,-267.1892 216.4053,-267.1892 211.4233,-266.7648 216.0233,-271.673 206.4414,-266.3403 206.4414,-266.3403"/>
<text text-anchor="middle" x="254.5484" y="-267" font-family="Helvetica,sans-Serif" font-size="10.00" fill="#000000">[undoJogada]</text>
</g>
<!-- A3&#45;&gt;A3 -->
<g id="edge12" class="edge">
<title>A3&#45;&gt;A3</title>
<path fill="none" stroke="#000000" d="M206.3444,-277.5246C245.0565,-278.8656 284.8429,-276.3574 284.8429,-270 284.8429,-264.2138 251.8845,-261.6161 216.7749,-262.2072"/>
<polygon fill="#000000" stroke="#000000" points="206.3444,-262.4754 216.2253,-257.7197 211.3427,-262.3468 216.3411,-262.2182 216.3411,-262.2182 216.3411,-262.2182 211.3427,-262.3468 216.4568,-266.7167 206.3444,-262.4754 206.3444,-262.4754"/>
<text text-anchor="middle" x="312.6279" y="-267" font-family="Helvetica,sans-Serif" font-size="10.00" fill="#000000">[gravarJogo]</text>
</g>
<!-- A5 -->
<g id="node6" class="node">
<title>A5</title>
<path fill="none" stroke="#000000" d="M265.6421,-120C265.6421,-120 209.0416,-120 209.0416,-120 203.0416,-120 197.0416,-114 197.0416,-108 197.0416,-108 197.0416,-96 197.0416,-96 197.0416,-90 203.0416,-84 209.0416,-84 209.0416,-84 265.6421,-84 265.6421,-84 271.6421,-84 277.6421,-90 277.6421,-96 277.6421,-96 277.6421,-108 277.6421,-108 277.6421,-114 271.6421,-120 265.6421,-120"/>
<text text-anchor="middle" x="237.3419" y="-99" font-family="Helvetica,sans-Serif" font-size="10.00" fill="#000000">{fimJogada}</text>
</g>
<!-- A3&#45;&gt;A5 -->
<g id="edge9" class="edge">
<title>A3&#45;&gt;A5</title>
<path fill="none" stroke="#000000" d="M141.5587,-251.803C140.3142,-230.3765 140.9633,-194.3713 155.5589,-168 164.9518,-151.029 180.6476,-136.7711 195.7914,-125.8998"/>
<polygon fill="#000000" stroke="#000000" points="204.1043,-120.2129 198.3916,-129.5733 199.9775,-123.0361 195.8508,-125.8592 195.8508,-125.8592 195.8508,-125.8592 199.9775,-123.0361 193.3099,-122.1451 204.1043,-120.2129 204.1043,-120.2129"/>
<text text-anchor="middle" x="170.2334" y="-183" font-family="Helvetica,sans-Serif" font-size="10.00" fill="#000000">[jogar]</text>
</g>
<!-- A6 -->
<g id="node7" class="node">
<title>A6</title>
<path fill="none" stroke="#000000" d="M270.6381,-204C270.6381,-204 204.0457,-204 204.0457,-204 198.0457,-204 192.0457,-198 192.0457,-192 192.0457,-192 192.0457,-180 192.0457,-180 192.0457,-174 198.0457,-168 204.0457,-168 204.0457,-168 270.6381,-168 270.6381,-168 276.6381,-168 282.6381,-174 282.6381,-180 282.6381,-180 282.6381,-192 282.6381,-192 282.6381,-198 276.6381,-204 270.6381,-204"/>
<text text-anchor="middle" x="237.3419" y="-183" font-family="Helvetica,sans-Serif" font-size="10.00" fill="#000000">{jogaMinijogo}</text>
</g>
<!-- A3&#45;&gt;A6 -->
<g id="edge10" class="edge">
<title>A3&#45;&gt;A6</title>
<path fill="none" stroke="#000000" d="M146.7728,-251.8241C149.4119,-242.0123 153.9437,-230.2554 161.5579,-222 167.585,-215.4653 175.0456,-210.0003 182.9137,-205.4663"/>
<polygon fill="#000000" stroke="#000000" points="191.9154,-200.7356 185.1569,-209.3711 187.4894,-203.0617 183.0634,-205.3877 183.0634,-205.3877 183.0634,-205.3877 187.4894,-203.0617 180.9699,-201.4043 191.9154,-200.7356 191.9154,-200.7356"/>
<text text-anchor="middle" x="198.7339" y="-225" font-family="Helvetica,sans-Serif" font-size="10.00" fill="#000000">[aceitarMinijogo]</text>
</g>
<!-- A7 -->
<g id="node8" class="node">
<title>A7</title>
<path fill="none" stroke="#000000" d="M260.0246,-36C260.0246,-36 214.6592,-36 214.6592,-36 208.6592,-36 202.6592,-30 202.6592,-24 202.6592,-24 202.6592,-12 202.6592,-12 202.6592,-6 208.6592,0 214.6592,0 214.6592,0 260.0246,0 260.0246,0 266.0246,0 272.0246,-6 272.0246,-12 272.0246,-12 272.0246,-24 272.0246,-24 272.0246,-30 266.0246,-36 260.0246,-36"/>
<text text-anchor="middle" x="237.3419" y="-15" font-family="Helvetica,sans-Serif" font-size="10.00" fill="#000000">{fimJogo}</text>
</g>
<!-- A3&#45;&gt;A7 -->
<g id="edge13" class="edge">
<title>A3&#45;&gt;A7</title>
<path fill="none" stroke="#000000" d="M136.2388,-251.8104C127.1694,-225.7031 114.3189,-176.512 129.1199,-138 144.169,-98.8425 178.5607,-64.4877 204.5644,-42.6847"/>
<polygon fill="#000000" stroke="#000000" points="212.3345,-36.3298 207.4426,-46.1441 208.4641,-39.4953 204.5937,-42.6608 204.5937,-42.6608 204.5937,-42.6608 208.4641,-39.4953 201.7447,-39.1774 212.3345,-36.3298 212.3345,-36.3298"/>
<text text-anchor="middle" x="147.9529" y="-141" font-family="Helvetica,sans-Serif" font-size="10.00" fill="#000000">[desistir]</text>
</g>
<!-- A4&#45;&gt;A1 -->
<g id="edge6" class="edge">
<title>A4&#45;&gt;A1</title>
<path fill="none" stroke="#000000" d="M319.0606,-371.493C305.5174,-377.3467 293.4635,-383.9274 289.5619,-390 285.8902,-395.7147 284.8336,-402.6464 285.1007,-409.4439"/>
<polygon fill="#000000" stroke="#000000" points="286.4242,-419.8211 280.6951,-410.4708 285.7916,-414.8612 285.159,-409.9014 285.159,-409.9014 285.159,-409.9014 285.7916,-414.8612 289.6228,-409.3321 286.4242,-419.8211 286.4242,-419.8211"/>
<text text-anchor="middle" x="316.7319" y="-393" font-family="Helvetica,sans-Serif" font-size="10.00" fill="#000000">[sairReplay]</text>
</g>
<!-- A4&#45;&gt;A4 -->
<g id="edge5" class="edge">
<title>A4&#45;&gt;A4</title>
<path fill="none" stroke="#000000" d="M417.638,-361.6207C428.0892,-360.8469 435.6364,-358.3066 435.6364,-354 435.6364,-351.2411 432.539,-349.207 427.565,-347.898"/>
<polygon fill="#000000" stroke="#000000" points="417.638,-346.3793 428.2036,-343.4434 422.5805,-347.1354 427.523,-347.8916 427.523,-347.8916 427.523,-347.8916 422.5805,-347.1354 426.8425,-352.3399 417.638,-346.3793 417.638,-346.3793"/>
<text text-anchor="middle" x="456.1979" y="-351" font-family="Helvetica,sans-Serif" font-size="10.00" fill="#000000">[avancar]</text>
</g>
<!-- A5&#45;&gt;A3 -->
<g id="edge14" class="edge">
<title>A5&#45;&gt;A3</title>
<path fill="none" stroke="#000000" d="M277.7132,-112.0106C291.25,-117.4365 305.008,-125.6585 313.3419,-138 405.1476,-273.9533 332.4297,-216.7191 318.3419,-234 305.2778,-250.0252 258.363,-259.1226 216.396,-264.1619"/>
<polygon fill="#000000" stroke="#000000" points="206.418,-265.2971 215.8452,-259.6954 211.386,-264.7318 216.3539,-264.1666 216.3539,-264.1666 216.3539,-264.1666 211.386,-264.7318 216.8627,-268.6377 206.418,-265.2971 206.418,-265.2971"/>
<text text-anchor="middle" x="373.9034" y="-183" font-family="Helvetica,sans-Serif" font-size="10.00" fill="#000000">[avancar]</text>
</g>
<!-- A5&#45;&gt;A7 -->
<g id="edge15" class="edge">
<title>A5&#45;&gt;A7</title>
<path fill="none" stroke="#000000" d="M237.3419,-83.7733C237.3419,-72.8758 237.3419,-58.7946 237.3419,-46.4587"/>
<polygon fill="#000000" stroke="#000000" points="237.3419,-36.1912 241.842,-46.1911 237.3419,-41.1912 237.342,-46.1912 237.342,-46.1912 237.342,-46.1912 237.3419,-41.1912 232.842,-46.1912 237.3419,-36.1912 237.3419,-36.1912"/>
<text text-anchor="middle" x="266.5214" y="-57" font-family="Helvetica,sans-Serif" font-size="10.00" fill="#000000">[ganharJogo]</text>
</g>
<!-- A6&#45;&gt;A3 -->
<g id="edge16" class="edge">
<title>A6&#45;&gt;A3</title>
<path fill="none" stroke="#000000" d="M240.6251,-204.4434C241.321,-214.1 240.427,-225.6234 234.3419,-234 229.3179,-240.9159 222.7538,-246.5039 215.449,-251.0188"/>
<polygon fill="#000000" stroke="#000000" points="206.5814,-255.8412 213.2164,-247.1104 210.9739,-253.4525 215.3663,-251.0637 215.3663,-251.0637 215.3663,-251.0637 210.9739,-253.4525 217.5162,-255.0169 206.5814,-255.8412 206.5814,-255.8412"/>
<text text-anchor="middle" x="277.2939" y="-225" font-family="Helvetica,sans-Serif" font-size="10.00" fill="#000000">[ganharMinijogo]</text>
</g>
<!-- A6&#45;&gt;A5 -->
<g id="edge17" class="edge">
<title>A6&#45;&gt;A5</title>
<path fill="none" stroke="#000000" d="M237.3419,-167.7733C237.3419,-156.8758 237.3419,-142.7946 237.3419,-130.4587"/>
<polygon fill="#000000" stroke="#000000" points="237.3419,-120.1912 241.842,-130.1911 237.3419,-125.1912 237.342,-130.1912 237.342,-130.1912 237.342,-130.1912 237.3419,-125.1912 232.842,-130.1912 237.3419,-120.1912 237.3419,-120.1912"/>
<text text-anchor="middle" x="273.1789" y="-141" font-family="Helvetica,sans-Serif" font-size="10.00" fill="#000000">[perderMinijogo]</text>
</g>
<!-- A7&#45;&gt;A1 -->
<g id="edge18" class="edge">
<title>A7&#45;&gt;A1</title>
<path fill="none" stroke="#000000" d="M272.2475,-21.5733C344.621,-29.9517 504.3419,-53.8919 504.3419,-102 504.3419,-354 504.3419,-354 504.3419,-354 504.3419,-385.5194 422.3231,-410.3268 360.3165,-424.5777"/>
<polygon fill="#000000" stroke="#000000" points="350.5522,-426.7736 359.3211,-420.1891 355.4304,-425.6765 360.3085,-424.5794 360.3085,-424.5794 360.3085,-424.5794 355.4304,-425.6765 361.296,-428.9697 350.5522,-426.7736 350.5522,-426.7736"/>
<text text-anchor="middle" x="524.9034" y="-225" font-family="Helvetica,sans-Serif" font-size="10.00" fill="#000000">[avancar]</text>
</g>
</g>
</svg>
