<?xml version="1.0" encoding="UTF-8" standalone="no"?>
<!DOCTYPE svg PUBLIC "-//W3C//DTD SVG 1.1//EN"
 "http://www.w3.org/Graphics/SVG/1.1/DTD/svg11.dtd">
<!-- Generated by graphviz version 2.40.1 (20161225.0304)
 -->
<!-- Title: G Pages: 1 -->
<svg width="573pt" height="366pt"
 viewBox="0.00 0.00 573.31 366.00" xmlns="http://www.w3.org/2000/svg" xmlns:xlink="http://www.w3.org/1999/xlink">
<g id="graph0" class="graph" transform="scale(1 1) rotate(0) translate(4 362)">
<title>G</title>
<polygon fill="#ffffff" stroke="transparent" points="-4,4 -4,-362 569.3095,-362 569.3095,4 -4,4"/>
<!-- A0 -->
<g id="node1" class="node">
<title>A0</title>
<ellipse fill="none" stroke="#000000" cx="314.1865" cy="-347" rx="11" ry="11"/>
</g>
<!-- A1 -->
<g id="node2" class="node">
<title>A1</title>
<path fill="none" stroke="#000000" d="M360.5511,-288C360.5511,-288 267.8219,-288 267.8219,-288 261.8219,-288 255.8219,-282 255.8219,-276 255.8219,-276 255.8219,-264 255.8219,-264 255.8219,-258 261.8219,-252 267.8219,-252 267.8219,-252 360.5511,-252 360.5511,-252 366.5511,-252 372.5511,-258 372.5511,-264 372.5511,-264 372.5511,-276 372.5511,-276 372.5511,-282 366.5511,-288 360.5511,-288"/>
<text text-anchor="middle" x="314.1865" y="-267" font-family="Helvetica,sans-Serif" font-size="10.00" fill="#000000">{pedeDecisaoInicio}</text>
</g>
<!-- A0&#45;&gt;A1 -->
<g id="edge1" class="edge">
<title>A0&#45;&gt;A1</title>
<path fill="none" stroke="#000000" d="M314.1865,-335.9678C314.1865,-326.124 314.1865,-311.2813 314.1865,-298.1664"/>
<polygon fill="#000000" stroke="#000000" points="314.1865,-288.1474 318.6866,-298.1473 314.1865,-293.1474 314.1866,-298.1474 314.1866,-298.1474 314.1866,-298.1474 314.1865,-293.1474 309.6866,-298.1474 314.1865,-288.1474 314.1865,-288.1474"/>
<text text-anchor="middle" x="330.0175" y="-309" font-family="Helvetica,sans-Serif" font-size="10.00" fill="#000000">[iniciar]</text>
</g>
<!-- A2 -->
<g id="node3" class="node">
<title>A2</title>
<path fill="none" stroke="#000000" d="M104.5601,-204C104.5601,-204 11.8129,-204 11.8129,-204 5.8129,-204 -.1871,-198 -.1871,-192 -.1871,-192 -.1871,-180 -.1871,-180 -.1871,-174 5.8129,-168 11.8129,-168 11.8129,-168 104.5601,-168 104.5601,-168 110.5601,-168 116.5601,-174 116.5601,-180 116.5601,-180 116.5601,-192 116.5601,-192 116.5601,-198 110.5601,-204 104.5601,-204"/>
<text text-anchor="middle" x="58.1865" y="-183" font-family="Helvetica,sans-Serif" font-size="10.00" fill="#000000">{pedeConfiguracao}</text>
</g>
<!-- A1&#45;&gt;A2 -->
<g id="edge2" class="edge">
<title>A1&#45;&gt;A2</title>
<path fill="none" stroke="#000000" d="M255.9029,-254.9849C233.5463,-248.9104 207.8814,-241.5529 184.8475,-234 160.9058,-226.1495 134.8177,-216.4622 112.5737,-207.8508"/>
<polygon fill="#000000" stroke="#000000" points="102.9705,-204.108 113.9221,-203.5467 107.6292,-205.9237 112.2879,-207.7395 112.2879,-207.7395 112.2879,-207.7395 107.6292,-205.9237 110.6537,-211.9323 102.9705,-204.108 102.9705,-204.108"/>
<text text-anchor="middle" x="211.856" y="-225" font-family="Helvetica,sans-Serif" font-size="10.00" fill="#000000">[iniciarJogo]</text>
</g>
<!-- A3 -->
<g id="node4" class="node">
<title>A3</title>
<path fill="none" stroke="#000000" d="M288.0106,-120C288.0106,-120 186.3624,-120 186.3624,-120 180.3624,-120 174.3624,-114 174.3624,-108 174.3624,-108 174.3624,-96 174.3624,-96 174.3624,-90 180.3624,-84 186.3624,-84 186.3624,-84 288.0106,-84 288.0106,-84 294.0106,-84 300.0106,-90 300.0106,-96 300.0106,-96 300.0106,-108 300.0106,-108 300.0106,-114 294.0106,-120 288.0106,-120"/>
<text text-anchor="middle" x="237.1865" y="-99" font-family="Helvetica,sans-Serif" font-size="10.00" fill="#000000">{pedeDecisaoJogada}</text>
</g>
<!-- A1&#45;&gt;A3 -->
<g id="edge3" class="edge">
<title>A1&#45;&gt;A3</title>
<path fill="none" stroke="#000000" d="M296.2076,-251.8743C284.7818,-239.3872 270.5503,-221.8776 261.8295,-204 250.3505,-180.4681 243.9934,-151.2104 240.6251,-130.0724"/>
<polygon fill="#000000" stroke="#000000" points="239.1636,-120.1207 245.069,-129.3607 239.8902,-125.0676 240.6167,-130.0146 240.6167,-130.0146 240.6167,-130.0146 239.8902,-125.0676 236.1645,-130.6685 239.1636,-120.1207 239.1636,-120.1207"/>
<text text-anchor="middle" x="296.365" y="-183" font-family="Helvetica,sans-Serif" font-size="10.00" fill="#000000">[continuarJogo]</text>
</g>
<!-- A4 -->
<g id="node5" class="node">
<title>A4</title>
<path fill="none" stroke="#000000" d="M425.2764,-204C425.2764,-204 351.0966,-204 351.0966,-204 345.0966,-204 339.0966,-198 339.0966,-192 339.0966,-192 339.0966,-180 339.0966,-180 339.0966,-174 345.0966,-168 351.0966,-168 351.0966,-168 425.2764,-168 425.2764,-168 431.2764,-168 437.2764,-174 437.2764,-180 437.2764,-180 437.2764,-192 437.2764,-192 437.2764,-198 431.2764,-204 425.2764,-204"/>
<text text-anchor="middle" x="388.1865" y="-183" font-family="Helvetica,sans-Serif" font-size="10.00" fill="#000000">{assisteJogada}</text>
</g>
<!-- A1&#45;&gt;A4 -->
<g id="edge4" class="edge">
<title>A1&#45;&gt;A4</title>
<path fill="none" stroke="#000000" d="M310.4893,-251.8169C309.5339,-242.2366 310.0459,-230.7029 315.6255,-222 319.3991,-216.114 324.4439,-211.1565 330.1237,-206.9887"/>
<polygon fill="#000000" stroke="#000000" points="338.8256,-201.4314 332.8198,-210.6063 334.6117,-204.1226 330.3977,-206.8138 330.3977,-206.8138 330.3977,-206.8138 334.6117,-204.1226 327.9756,-203.0212 338.8256,-201.4314 338.8256,-201.4314"/>
<text text-anchor="middle" x="340.467" y="-225" font-family="Helvetica,sans-Serif" font-size="10.00" fill="#000000">[verReplay]</text>
</g>
<!-- A2&#45;&gt;A2 -->
<g id="edge7" class="edge">
<title>A2&#45;&gt;A2</title>
<path fill="none" stroke="#000000" d="M116.6413,-193.4131C127.0809,-192.4495 134.373,-189.9785 134.373,-186 134.373,-183.5134 131.5245,-181.6157 126.8395,-180.3069"/>
<polygon fill="#000000" stroke="#000000" points="116.6413,-178.5869 127.2505,-175.8127 121.5717,-179.4185 126.5021,-180.25 126.5021,-180.25 126.5021,-180.25 121.5717,-179.4185 125.7537,-184.6874 116.6413,-178.5869 116.6413,-178.5869"/>
<text text-anchor="middle" x="175.495" y="-183" font-family="Helvetica,sans-Serif" font-size="10.00" fill="#000000">[adicionarJogador]</text>
</g>
<!-- A2&#45;&gt;A3 -->
<g id="edge8" class="edge">
<title>A2&#45;&gt;A3</title>
<path fill="none" stroke="#000000" d="M94.2344,-167.879C112.6195,-158.7444 135.384,-147.5976 155.9425,-138 165.7891,-133.4032 176.3679,-128.6105 186.5304,-124.0779"/>
<polygon fill="#000000" stroke="#000000" points="195.7133,-120.0013 188.3993,-128.1717 191.1434,-122.0301 186.5734,-124.0588 186.5734,-124.0588 186.5734,-124.0588 191.1434,-122.0301 184.7476,-119.9458 195.7133,-120.0013 195.7133,-120.0013"/>
<text text-anchor="middle" x="197.3085" y="-141" font-family="Helvetica,sans-Serif" font-size="10.00" fill="#000000">[adicionarJogador]</text>
</g>
<!-- A3&#45;&gt;A3 -->
<g id="edge9" class="edge">
<title>A3&#45;&gt;A3</title>
<path fill="none" stroke="#000000" d="M300.286,-104.4398C310.8258,-104.0984 318.0985,-103.2852 318.0985,-102 318.0985,-101.1968 315.2576,-100.5779 310.5537,-100.1433"/>
<polygon fill="#000000" stroke="#000000" points="300.286,-99.5602 310.5251,-95.6345 305.278,-99.8438 310.2699,-100.1273 310.2699,-100.1273 310.2699,-100.1273 305.278,-99.8438 310.0147,-104.6201 300.286,-99.5602 300.286,-99.5602"/>
<text text-anchor="middle" x="331.99" y="-99" font-family="Helvetica,sans-Serif" font-size="10.00" fill="#000000">[jogar]</text>
</g>
<!-- A3&#45;&gt;A3 -->
<g id="edge12" class="edge">
<title>A3&#45;&gt;A3</title>
<path fill="none" stroke="#000000" d="M300.0814,-107.2343C324.8232,-107.4362 345.8815,-105.6914 345.8815,-102 345.8815,-98.8277 330.3294,-97.093 310.2525,-96.796"/>
<polygon fill="#000000" stroke="#000000" points="300.0814,-96.7657 310.0948,-92.2956 305.0814,-96.7807 310.0814,-96.7956 310.0814,-96.7956 310.0814,-96.7956 305.0814,-96.7807 310.0679,-101.2956 300.0814,-96.7657 300.0814,-96.7657"/>
<text text-anchor="middle" x="376.176" y="-99" font-family="Helvetica,sans-Serif" font-size="10.00" fill="#000000">[undoJogada]</text>
</g>
<!-- A3&#45;&gt;A3 -->
<g id="edge13" class="edge">
<title>A3&#45;&gt;A3</title>
<path fill="none" stroke="#000000" d="M300.3092,-109.0866C350.0147,-111.2733 406.4705,-108.9111 406.4705,-102 406.4705,-95.5613 357.4694,-93.0709 310.5771,-94.5287"/>
<polygon fill="#000000" stroke="#000000" points="300.3092,-94.9134 310.1337,-90.0421 305.3057,-94.7262 310.3022,-94.5389 310.3022,-94.5389 310.3022,-94.5389 305.3057,-94.7262 310.4707,-99.0358 300.3092,-94.9134 300.3092,-94.9134"/>
<text text-anchor="middle" x="434.2555" y="-99" font-family="Helvetica,sans-Serif" font-size="10.00" fill="#000000">[gravarJogo]</text>
</g>
<!-- A5 -->
<g id="node6" class="node">
<title>A5</title>
<path fill="none" stroke="#000000" d="M459.8692,-36C459.8692,-36 414.5038,-36 414.5038,-36 408.5038,-36 402.5038,-30 402.5038,-24 402.5038,-24 402.5038,-12 402.5038,-12 402.5038,-6 408.5038,0 414.5038,0 414.5038,0 459.8692,0 459.8692,0 465.8692,0 471.8692,-6 471.8692,-12 471.8692,-12 471.8692,-24 471.8692,-24 471.8692,-30 465.8692,-36 459.8692,-36"/>
<text text-anchor="middle" x="437.1865" y="-15" font-family="Helvetica,sans-Serif" font-size="10.00" fill="#000000">{fimJogo}</text>
</g>
<!-- A3&#45;&gt;A5 -->
<g id="edge10" class="edge">
<title>A3&#45;&gt;A5</title>
<path fill="none" stroke="#000000" d="M300.2878,-95.3352C344.0504,-89.5959 397.521,-80.004 415.1865,-66 421.7527,-60.7947 426.4347,-53.1871 429.7408,-45.5564"/>
<polygon fill="#000000" stroke="#000000" points="433.2311,-36.0574 434.006,-46.9959 431.5066,-40.7506 429.7821,-45.4438 429.7821,-45.4438 429.7821,-45.4438 431.5066,-40.7506 425.5582,-43.8918 433.2311,-36.0574 433.2311,-36.0574"/>
<text text-anchor="middle" x="439.078" y="-57" font-family="Helvetica,sans-Serif" font-size="10.00" fill="#000000">[jogar]</text>
</g>
<!-- A3&#45;&gt;A5 -->
<g id="edge14" class="edge">
<title>A3&#45;&gt;A5</title>
<path fill="none" stroke="#000000" d="M292.1566,-83.9136C307.5161,-78.5056 324.1219,-72.3226 339.1865,-66 357.316,-58.3911 376.8521,-49.0628 393.6749,-40.6597"/>
<polygon fill="#000000" stroke="#000000" points="402.7155,-36.1033 395.8108,-44.6225 398.2505,-38.3537 393.7855,-40.604 393.7855,-40.604 393.7855,-40.604 398.2505,-38.3537 391.7602,-36.5855 402.7155,-36.1033 402.7155,-36.1033"/>
<text text-anchor="middle" x="381.7975" y="-57" font-family="Helvetica,sans-Serif" font-size="10.00" fill="#000000">[desistir]</text>
</g>
<!-- A6 -->
<g id="node7" class="node">
<title>A6</title>
<path fill="none" stroke="#000000" d="M218.4827,-36C218.4827,-36 151.8903,-36 151.8903,-36 145.8903,-36 139.8903,-30 139.8903,-24 139.8903,-24 139.8903,-12 139.8903,-12 139.8903,-6 145.8903,0 151.8903,0 151.8903,0 218.4827,0 218.4827,0 224.4827,0 230.4827,-6 230.4827,-12 230.4827,-12 230.4827,-24 230.4827,-24 230.4827,-30 224.4827,-36 218.4827,-36"/>
<text text-anchor="middle" x="185.1865" y="-15" font-family="Helvetica,sans-Serif" font-size="10.00" fill="#000000">{jogaMinijogo}</text>
</g>
<!-- A3&#45;&gt;A6 -->
<g id="edge11" class="edge">
<title>A3&#45;&gt;A6</title>
<path fill="none" stroke="#000000" d="M174.3587,-94.3696C139.489,-88.702 101.0499,-79.5743 90.4025,-66 75.2654,-46.7018 101.4244,-34.5012 130.0641,-27.2315"/>
<polygon fill="#000000" stroke="#000000" points="139.8158,-24.952 131.1026,-31.6101 134.947,-26.0901 130.0782,-27.2283 130.0782,-27.2283 130.0782,-27.2283 134.947,-26.0901 129.0539,-22.8464 139.8158,-24.952 139.8158,-24.952"/>
<text text-anchor="middle" x="127.5785" y="-57" font-family="Helvetica,sans-Serif" font-size="10.00" fill="#000000">[aceitarMinijogo]</text>
</g>
<!-- A4&#45;&gt;A1 -->
<g id="edge6" class="edge">
<title>A4&#45;&gt;A1</title>
<path fill="none" stroke="#000000" d="M382.4945,-204.1757C378.8774,-213.7538 373.4876,-225.2878 366.1865,-234 362.6602,-238.2078 358.5277,-242.1453 354.1603,-245.7574"/>
<polygon fill="#000000" stroke="#000000" points="346.1256,-251.8961 351.3398,-242.2492 350.0987,-248.8606 354.0718,-245.825 354.0718,-245.825 354.0718,-245.825 350.0987,-248.8606 356.8038,-249.4008 346.1256,-251.8961 346.1256,-251.8961"/>
<text text-anchor="middle" x="400.5765" y="-225" font-family="Helvetica,sans-Serif" font-size="10.00" fill="#000000">[sairReplay]</text>
</g>
<!-- A4&#45;&gt;A4 -->
<g id="edge5" class="edge">
<title>A4&#45;&gt;A4</title>
<path fill="none" stroke="#000000" d="M437.4827,-193.6207C447.9338,-192.8469 455.481,-190.3066 455.481,-186 455.481,-183.2411 452.3836,-181.207 447.4096,-179.898"/>
<polygon fill="#000000" stroke="#000000" points="437.4827,-178.3793 448.0482,-175.4434 442.4251,-179.1354 447.3676,-179.8916 447.3676,-179.8916 447.3676,-179.8916 442.4251,-179.1354 446.6871,-184.3399 437.4827,-178.3793 437.4827,-178.3793"/>
<text text-anchor="middle" x="476.0425" y="-183" font-family="Helvetica,sans-Serif" font-size="10.00" fill="#000000">[avancar]</text>
</g>
<!-- A5&#45;&gt;A1 -->
<g id="edge17" class="edge">
<title>A5&#45;&gt;A1</title>
<path fill="none" stroke="#000000" d="M464.6838,-36.1817C479.7167,-47.8476 496.9187,-64.4537 505.1865,-84 525.9634,-133.1199 534.9839,-159.767 505.1865,-204 490.9746,-225.0969 431.5791,-243.4701 382.748,-255.4361"/>
<polygon fill="#000000" stroke="#000000" points="372.8242,-257.8168 381.4985,-251.1081 377.6863,-256.6503 382.5483,-255.4839 382.5483,-255.4839 382.5483,-255.4839 377.6863,-256.6503 383.5981,-259.8598 372.8242,-257.8168 372.8242,-257.8168"/>
<text text-anchor="middle" x="544.748" y="-141" font-family="Helvetica,sans-Serif" font-size="10.00" fill="#000000">[avancar]</text>
</g>
<!-- A6&#45;&gt;A3 -->
<g id="edge15" class="edge">
<title>A6&#45;&gt;A3</title>
<path fill="none" stroke="#000000" d="M181.8462,-36.3073C181.0323,-45.7005 181.5052,-57.0227 186.2825,-66 188.4285,-70.0327 191.2504,-73.7142 194.467,-77.0506"/>
<polygon fill="#000000" stroke="#000000" points="202.03,-83.8059 191.5742,-80.5005 198.301,-80.4751 194.5719,-77.1443 194.5719,-77.1443 194.5719,-77.1443 198.301,-80.4751 197.5696,-73.7881 202.03,-83.8059 202.03,-83.8059"/>
<text text-anchor="middle" x="224.1385" y="-57" font-family="Helvetica,sans-Serif" font-size="10.00" fill="#000000">[ganharMinijogo]</text>
</g>
<!-- A6&#45;&gt;A3 -->
<g id="edge16" class="edge">
<title>A6&#45;&gt;A3</title>
<path fill="none" stroke="#000000" d="M230.5549,-30.0823C242.1899,-35.4542 253.3406,-43.1202 260.1865,-54 264.3389,-60.5991 263.2556,-68.0624 259.9368,-75.1034"/>
<polygon fill="#000000" stroke="#000000" points="254.7633,-83.6993 256.0645,-72.8109 257.3417,-79.4153 259.92,-75.1314 259.92,-75.1314 259.92,-75.1314 257.3417,-79.4153 263.7756,-77.4519 254.7633,-83.6993 254.7633,-83.6993"/>
<text text-anchor="middle" x="299.0235" y="-57" font-family="Helvetica,sans-Serif" font-size="10.00" fill="#000000">[perderMinijogo]</text>
</g>
</g>
</svg>
