<?xml version="1.0" encoding="UTF-8" standalone="no"?>
<!DOCTYPE svg PUBLIC "-//W3C//DTD SVG 1.1//EN"
 "http://www.w3.org/Graphics/SVG/1.1/DTD/svg11.dtd">
<!-- Generated by graphviz version 2.44.0 (20200408.0750)
 -->
<!-- Title: G Pages: 1 -->
<svg width="568pt" height="612pt"
 viewBox="0.00 0.00 568.08 612.00" xmlns="http://www.w3.org/2000/svg" xmlns:xlink="http://www.w3.org/1999/xlink">
<g id="graph0" class="graph" transform="scale(1 1) rotate(0) translate(4 608)">
<title>G</title>
<!-- A0 -->
<g id="node1" class="node">
<title>A0</title>
<ellipse fill="none" stroke="black" cx="381" cy="-593" rx="11" ry="11"/>
</g>
<!-- A1 -->
<g id="node2" class="node">
<title>A1</title>
<path fill="none" stroke="black" d="M423.69,-534C423.69,-534 338.31,-534 338.31,-534 332.31,-534 326.31,-528 326.31,-522 326.31,-522 326.31,-510 326.31,-510 326.31,-504 332.31,-498 338.31,-498 338.31,-498 423.69,-498 423.69,-498 429.69,-498 435.69,-504 435.69,-510 435.69,-510 435.69,-522 435.69,-522 435.69,-528 429.69,-534 423.69,-534"/>
<text text-anchor="middle" x="381" y="-513" font-family="Helvetica,sans-Serif" font-size="10.00">pedeDecisaoInicio</text>
</g>
<!-- A0&#45;&gt;A1 -->
<g id="edge1" class="edge">
<title>A0&#45;&gt;A1</title>
<path fill="none" stroke="black" d="M381,-581.89C381,-572.23 381,-557.25 381,-544.12"/>
<polygon fill="black" stroke="black" points="381,-534.12 385.5,-544.12 381,-539.12 381,-544.12 381,-544.12 381,-544.12 381,-539.12 376.5,-544.12 381,-534.12 381,-534.12"/>
<text text-anchor="middle" x="396.83" y="-555" font-family="Helvetica,sans-Serif" font-size="10.00">[iniciar]</text>
</g>
<!-- A2 -->
<g id="node3" class="node">
<title>A2</title>
<path fill="none" stroke="black" d="M184.7,-450C184.7,-450 99.3,-450 99.3,-450 93.3,-450 87.3,-444 87.3,-438 87.3,-438 87.3,-426 87.3,-426 87.3,-420 93.3,-414 99.3,-414 99.3,-414 184.7,-414 184.7,-414 190.7,-414 196.7,-420 196.7,-426 196.7,-426 196.7,-438 196.7,-438 196.7,-444 190.7,-450 184.7,-450"/>
<text text-anchor="middle" x="142" y="-429" font-family="Helvetica,sans-Serif" font-size="10.00">pedeConfiguracao</text>
</g>
<!-- A1&#45;&gt;A2 -->
<g id="edge2" class="edge">
<title>A1&#45;&gt;A2</title>
<path fill="none" stroke="black" d="M326.13,-511.65C288.73,-507.68 238.89,-498.99 198.66,-480 186.74,-474.37 175.23,-465.65 165.73,-457.24"/>
<polygon fill="black" stroke="black" points="158.26,-450.33 168.66,-453.82 161.93,-453.73 165.6,-457.12 165.6,-457.12 165.6,-457.12 161.93,-453.73 162.55,-460.43 158.26,-450.33 158.26,-450.33"/>
<text text-anchor="middle" x="225.67" y="-471" font-family="Helvetica,sans-Serif" font-size="10.00">[iniciarJogo]</text>
</g>
<!-- A3 -->
<g id="node4" class="node">
<title>A3</title>
<path fill="none" stroke="black" d="M189.65,-366C189.65,-366 94.35,-366 94.35,-366 88.35,-366 82.35,-360 82.35,-354 82.35,-354 82.35,-342 82.35,-342 82.35,-336 88.35,-330 94.35,-330 94.35,-330 189.65,-330 189.65,-330 195.65,-330 201.65,-336 201.65,-342 201.65,-342 201.65,-354 201.65,-354 201.65,-360 195.65,-366 189.65,-366"/>
<text text-anchor="middle" x="142" y="-345" font-family="Helvetica,sans-Serif" font-size="10.00">pedeDecisaoJogada</text>
</g>
<!-- A1&#45;&gt;A3 -->
<g id="edge3" class="edge">
<title>A1&#45;&gt;A3</title>
<path fill="none" stroke="black" d="M356.32,-497.86C313.01,-467.77 223.3,-405.47 174.81,-371.79"/>
<polygon fill="black" stroke="black" points="166.54,-366.05 177.32,-368.06 170.65,-368.9 174.76,-371.75 174.76,-371.75 174.76,-371.75 170.65,-368.9 172.19,-375.45 166.54,-366.05 166.54,-366.05"/>
<text text-anchor="middle" x="320.18" y="-429" font-family="Helvetica,sans-Serif" font-size="10.00">[continuarJogo]</text>
</g>
<!-- A4 -->
<g id="node5" class="node">
<title>A4</title>
<path fill="none" stroke="black" d="M488.91,-450C488.91,-450 421.09,-450 421.09,-450 415.09,-450 409.09,-444 409.09,-438 409.09,-438 409.09,-426 409.09,-426 409.09,-420 415.09,-414 421.09,-414 421.09,-414 488.91,-414 488.91,-414 494.91,-414 500.91,-420 500.91,-426 500.91,-426 500.91,-438 500.91,-438 500.91,-444 494.91,-450 488.91,-450"/>
<text text-anchor="middle" x="455" y="-429" font-family="Helvetica,sans-Serif" font-size="10.00">assisteJogada</text>
</g>
<!-- A1&#45;&gt;A4 -->
<g id="edge4" class="edge">
<title>A1&#45;&gt;A4</title>
<path fill="none" stroke="black" d="M392.28,-497.79C398.64,-488.58 406.99,-477.27 415.44,-468 418.9,-464.2 422.75,-460.39 426.64,-456.75"/>
<polygon fill="black" stroke="black" points="434.09,-450.01 429.69,-460.06 430.38,-453.37 426.67,-456.72 426.67,-456.72 426.67,-456.72 430.38,-453.37 423.66,-453.38 434.09,-450.01 434.09,-450.01"/>
<text text-anchor="middle" x="440.28" y="-471" font-family="Helvetica,sans-Serif" font-size="10.00">[verReplay]</text>
</g>
<!-- A2&#45;&gt;A3 -->
<g id="edge8" class="edge">
<title>A2&#45;&gt;A3</title>
<path fill="none" stroke="black" d="M142,-413.61C142,-402.77 142,-388.6 142,-376.29"/>
<polygon fill="black" stroke="black" points="142,-366.08 146.5,-376.08 142,-371.08 142,-376.08 142,-376.08 142,-376.08 142,-371.08 137.5,-376.08 142,-366.08 142,-366.08"/>
<text text-anchor="middle" x="162.56" y="-387" font-family="Helvetica,sans-Serif" font-size="10.00">[avancar]</text>
</g>
<!-- A5 -->
<g id="node6" class="node">
<title>A5</title>
<ellipse fill="none" stroke="black" cx="126" cy="-15" rx="11" ry="11"/>
<ellipse fill="none" stroke="black" cx="126" cy="-15" rx="15" ry="15"/>
</g>
<!-- A2&#45;&gt;A5 -->
<g id="edge9" class="edge">
<title>A2&#45;&gt;A5</title>
<path fill="none" stroke="black" d="M87.1,-421.92C47.14,-411.82 0,-390.99 0,-349 0,-349 0,-349 0,-95 0,-47.77 64.34,-27.7 101.07,-20.09"/>
<polygon fill="black" stroke="black" points="111.05,-18.19 102.07,-24.48 106.14,-19.12 101.23,-20.06 101.23,-20.06 101.23,-20.06 106.14,-19.12 100.39,-15.64 111.05,-18.19 111.05,-18.19"/>
<text text-anchor="middle" x="10.83" y="-219" font-family="Helvetica,sans-Serif" font-size="10.00">[sair]</text>
</g>
<!-- A3&#45;&gt;A3 -->
<g id="edge12" class="edge">
<title>A3&#45;&gt;A3</title>
<path fill="none" stroke="black" d="M201.85,-351.69C212.3,-351.2 219.57,-349.97 219.57,-348 219.57,-346.77 216.73,-345.83 212.05,-345.17"/>
<polygon fill="black" stroke="black" points="201.85,-344.31 212.19,-340.67 206.83,-344.73 211.81,-345.15 211.81,-345.15 211.81,-345.15 206.83,-344.73 211.43,-349.64 201.85,-344.31 201.85,-344.31"/>
<text text-anchor="middle" x="249.87" y="-345" font-family="Helvetica,sans-Serif" font-size="10.00">[undoJogada]</text>
</g>
<!-- A3&#45;&gt;A3 -->
<g id="edge13" class="edge">
<title>A3&#45;&gt;A3</title>
<path fill="none" stroke="black" d="M201.91,-355.47C240.18,-356.93 280.16,-354.44 280.16,-348 280.16,-342.14 247.04,-339.55 212.23,-340.23"/>
<polygon fill="black" stroke="black" points="201.91,-340.53 211.77,-335.74 206.9,-340.39 211.9,-340.24 211.9,-340.24 211.9,-340.24 206.9,-340.39 212.03,-344.74 201.91,-340.53 201.91,-340.53"/>
<text text-anchor="middle" x="307.95" y="-345" font-family="Helvetica,sans-Serif" font-size="10.00">[gravarJogo]</text>
</g>
<!-- A3&#45;&gt;A5 -->
<g id="edge15" class="edge">
<title>A3&#45;&gt;A5</title>
<path fill="none" stroke="black" d="M99.33,-329.93C73.69,-316.56 46,-295.14 46,-265 46,-265 46,-265 46,-95 46,-62.58 79.68,-38.97 103.34,-26.39"/>
<polygon fill="black" stroke="black" points="112.43,-21.82 105.51,-30.33 107.96,-24.06 103.49,-26.31 103.49,-26.31 103.49,-26.31 107.96,-24.06 101.47,-22.29 112.43,-21.82 112.43,-21.82"/>
<text text-anchor="middle" x="56.83" y="-177" font-family="Helvetica,sans-Serif" font-size="10.00">[sair]</text>
</g>
<!-- A6 -->
<g id="node7" class="node">
<title>A6</title>
<path fill="none" stroke="black" d="M227.12,-198C227.12,-198 176.88,-198 176.88,-198 170.88,-198 164.88,-192 164.88,-186 164.88,-186 164.88,-174 164.88,-174 164.88,-168 170.88,-162 176.88,-162 176.88,-162 227.12,-162 227.12,-162 233.12,-162 239.12,-168 239.12,-174 239.12,-174 239.12,-186 239.12,-186 239.12,-192 233.12,-198 227.12,-198"/>
<text text-anchor="middle" x="202" y="-177" font-family="Helvetica,sans-Serif" font-size="10.00">fimJogada</text>
</g>
<!-- A3&#45;&gt;A6 -->
<g id="edge10" class="edge">
<title>A3&#45;&gt;A6</title>
<path fill="none" stroke="black" d="M151.98,-329.8C159.13,-316.95 168.58,-298.78 175,-282 184.34,-257.6 191.71,-228.72 196.37,-208.1"/>
<polygon fill="black" stroke="black" points="198.56,-198.14 200.81,-208.87 197.49,-203.02 196.42,-207.91 196.42,-207.91 196.42,-207.91 197.49,-203.02 192.02,-206.94 198.56,-198.14 198.56,-198.14"/>
<text text-anchor="middle" x="200.89" y="-261" font-family="Helvetica,sans-Serif" font-size="10.00">[jogar]</text>
</g>
<!-- A7 -->
<g id="node8" class="node">
<title>A7</title>
<path fill="none" stroke="black" d="M325.12,-282C325.12,-282 264.88,-282 264.88,-282 258.88,-282 252.88,-276 252.88,-270 252.88,-270 252.88,-258 252.88,-258 252.88,-252 258.88,-246 264.88,-246 264.88,-246 325.12,-246 325.12,-246 331.12,-246 337.12,-252 337.12,-258 337.12,-258 337.12,-270 337.12,-270 337.12,-276 331.12,-282 325.12,-282"/>
<text text-anchor="middle" x="295" y="-261" font-family="Helvetica,sans-Serif" font-size="10.00">jogaMinijogo</text>
</g>
<!-- A3&#45;&gt;A7 -->
<g id="edge11" class="edge">
<title>A3&#45;&gt;A7</title>
<path fill="none" stroke="black" d="M201.69,-338.3C222.51,-333.15 245.12,-324.96 263,-312 270.66,-306.44 277.08,-298.45 282.1,-290.63"/>
<polygon fill="black" stroke="black" points="287.18,-282.02 285.98,-292.92 284.64,-286.32 282.1,-290.63 282.1,-290.63 282.1,-290.63 284.64,-286.32 278.22,-288.35 287.18,-282.02 287.18,-282.02"/>
<text text-anchor="middle" x="312.39" y="-303" font-family="Helvetica,sans-Serif" font-size="10.00">[aceitarMinijogo]</text>
</g>
<!-- A8 -->
<g id="node9" class="node">
<title>A8</title>
<path fill="none" stroke="black" d="M172.5,-114C172.5,-114 133.5,-114 133.5,-114 127.5,-114 121.5,-108 121.5,-102 121.5,-102 121.5,-90 121.5,-90 121.5,-84 127.5,-78 133.5,-78 133.5,-78 172.5,-78 172.5,-78 178.5,-78 184.5,-84 184.5,-90 184.5,-90 184.5,-102 184.5,-102 184.5,-108 178.5,-114 172.5,-114"/>
<text text-anchor="middle" x="153" y="-93" font-family="Helvetica,sans-Serif" font-size="10.00">fimJogo</text>
</g>
<!-- A3&#45;&gt;A8 -->
<g id="edge14" class="edge">
<title>A3&#45;&gt;A8</title>
<path fill="none" stroke="black" d="M130.68,-329.91C115.66,-305.17 92.02,-257.77 100.78,-216 107.82,-182.43 124.92,-146.75 137.65,-123.32"/>
<polygon fill="black" stroke="black" points="142.62,-114.37 141.7,-125.3 140.19,-118.74 137.76,-123.11 137.76,-123.11 137.76,-123.11 140.19,-118.74 133.83,-120.93 142.62,-114.37 142.62,-114.37"/>
<text text-anchor="middle" x="119.61" y="-219" font-family="Helvetica,sans-Serif" font-size="10.00">[desistir]</text>
</g>
<!-- A4&#45;&gt;A1 -->
<g id="edge6" class="edge">
<title>A4&#45;&gt;A1</title>
<path fill="none" stroke="black" d="M465.17,-450.26C469.3,-459.7 471.88,-471.23 466,-480 460.66,-487.97 453.14,-494.13 444.76,-498.89"/>
<polygon fill="black" stroke="black" points="435.77,-503.35 442.73,-494.87 440.25,-501.13 444.73,-498.9 444.73,-498.9 444.73,-498.9 440.25,-501.13 446.73,-502.93 435.77,-503.35 435.77,-503.35"/>
<text text-anchor="middle" x="495.39" y="-471" font-family="Helvetica,sans-Serif" font-size="10.00">[sairReplay]</text>
</g>
<!-- A4&#45;&gt;A4 -->
<g id="edge5" class="edge">
<title>A4&#45;&gt;A4</title>
<path fill="none" stroke="black" d="M500.99,-439.68C511.37,-438.99 518.96,-436.43 518.96,-432 518.96,-429.23 515.99,-427.19 511.24,-425.88"/>
<polygon fill="black" stroke="black" points="500.99,-424.32 511.56,-421.38 505.93,-425.07 510.88,-425.83 510.88,-425.83 510.88,-425.83 505.93,-425.07 510.2,-430.28 500.99,-424.32 500.99,-424.32"/>
<text text-anchor="middle" x="539.52" y="-429" font-family="Helvetica,sans-Serif" font-size="10.00">[avancar]</text>
</g>
<!-- A4&#45;&gt;A5 -->
<g id="edge7" class="edge">
<title>A4&#45;&gt;A5</title>
<path fill="none" stroke="black" d="M452,-413.78C449.39,-397.23 446,-371.48 446,-349 446,-349 446,-349 446,-95 446,-34.32 226.4,-19.96 151.03,-16.82"/>
<polygon fill="black" stroke="black" points="141.01,-16.43 151.17,-12.32 146,-16.63 151,-16.82 151,-16.82 151,-16.82 146,-16.63 150.82,-21.32 141.01,-16.43 141.01,-16.43"/>
<text text-anchor="middle" x="456.83" y="-219" font-family="Helvetica,sans-Serif" font-size="10.00">[sair]</text>
</g>
<!-- A6&#45;&gt;A3 -->
<g id="edge16" class="edge">
<title>A6&#45;&gt;A3</title>
<path fill="none" stroke="black" d="M173.26,-198.19C157.24,-209.53 138.79,-225.98 129.88,-246 119.39,-269.57 124.82,-299.13 131.42,-320.17"/>
<polygon fill="black" stroke="black" points="134.68,-329.75 127.2,-321.74 133.07,-325.02 131.45,-320.29 131.45,-320.29 131.45,-320.29 133.07,-325.02 135.71,-318.83 134.68,-329.75 134.68,-329.75"/>
<text text-anchor="middle" x="150.56" y="-261" font-family="Helvetica,sans-Serif" font-size="10.00">[avancar]</text>
</g>
<!-- A6&#45;&gt;A8 -->
<g id="edge17" class="edge">
<title>A6&#45;&gt;A8</title>
<path fill="none" stroke="black" d="M191.61,-161.61C184.87,-150.34 175.98,-135.45 168.42,-122.81"/>
<polygon fill="black" stroke="black" points="163.21,-114.08 172.2,-120.36 165.77,-118.38 168.34,-122.67 168.34,-122.67 168.34,-122.67 165.77,-118.38 164.48,-124.98 163.21,-114.08 163.21,-114.08"/>
<text text-anchor="middle" x="210.18" y="-135" font-family="Helvetica,sans-Serif" font-size="10.00">[ganharJogo]</text>
</g>
<!-- A7&#45;&gt;A3 -->
<g id="edge18" class="edge">
<title>A7&#45;&gt;A3</title>
<path fill="none" stroke="black" d="M252.66,-277.93C223.01,-287.08 188.15,-298.05 185.1,-300 176,-305.81 167.58,-314.01 160.64,-321.94"/>
<polygon fill="black" stroke="black" points="154.23,-329.68 157.15,-319.11 157.42,-325.83 160.61,-321.98 160.61,-321.98 160.61,-321.98 157.42,-325.83 164.07,-324.85 154.23,-329.68 154.23,-329.68"/>
<text text-anchor="middle" x="222.95" y="-303" font-family="Helvetica,sans-Serif" font-size="10.00">[ganharMinijogo]</text>
</g>
<!-- A7&#45;&gt;A6 -->
<g id="edge19" class="edge">
<title>A7&#45;&gt;A6</title>
<path fill="none" stroke="black" d="M275.28,-245.61C261.87,-233.79 243.96,-218 229.2,-204.98"/>
<polygon fill="black" stroke="black" points="221.38,-198.08 231.85,-201.32 225.13,-201.39 228.88,-204.7 228.88,-204.7 228.88,-204.7 225.13,-201.39 225.9,-208.07 221.38,-198.08 221.38,-198.08"/>
<text text-anchor="middle" x="290.84" y="-219" font-family="Helvetica,sans-Serif" font-size="10.00">[perderMinijogo]</text>
</g>
<!-- A8&#45;&gt;A1 -->
<g id="edge20" class="edge">
<title>A8&#45;&gt;A1</title>
<path fill="none" stroke="black" d="M184.7,-101.61C247.35,-111.61 381,-137.78 381,-179 381,-433 381,-433 381,-433 381,-451.16 381,-471.58 381,-487.5"/>
<polygon fill="black" stroke="black" points="381,-497.72 376.5,-487.72 381,-492.72 381,-487.72 381,-487.72 381,-487.72 381,-492.72 385.5,-487.72 381,-497.72 381,-497.72"/>
<text text-anchor="middle" x="401.56" y="-303" font-family="Helvetica,sans-Serif" font-size="10.00">[avancar]</text>
</g>
<!-- A8&#45;&gt;A5 -->
<g id="edge21" class="edge">
<title>A8&#45;&gt;A5</title>
<path fill="none" stroke="black" d="M147.14,-77.86C143.26,-66.51 138.13,-51.5 133.9,-39.1"/>
<polygon fill="black" stroke="black" points="130.6,-29.45 138.09,-37.45 132.21,-34.18 133.83,-38.91 133.83,-38.91 133.83,-38.91 132.21,-34.18 129.57,-40.36 130.6,-29.45 130.6,-29.45"/>
<text text-anchor="middle" x="151.83" y="-51" font-family="Helvetica,sans-Serif" font-size="10.00">[sair]</text>
</g>
</g>
</svg>
