<?xml version="1.0" encoding="UTF-8" standalone="no"?>
<!DOCTYPE svg PUBLIC "-//W3C//DTD SVG 1.1//EN"
 "http://www.w3.org/Graphics/SVG/1.1/DTD/svg11.dtd">
<!-- Generated by graphviz version 2.44.0 (20200408.0750)
 -->
<!-- Title: G Pages: 1 -->
<svg width="441pt" height="534pt"
 viewBox="0.00 0.00 440.69 534.00" xmlns="http://www.w3.org/2000/svg" xmlns:xlink="http://www.w3.org/1999/xlink">
<g id="graph0" class="graph" transform="scale(1 1) rotate(0) translate(4 530)">
<title>G</title>
<!-- A0 -->
<g id="node1" class="node">
<title>A0</title>
<ellipse fill="none" stroke="white" cx="215.57" cy="-515" rx="11" ry="11"/>
</g>
<!-- A1 -->
<g id="node2" class="node">
<title>A1</title>
<path fill="none" stroke="white" d="M258.25,-456C258.25,-456 172.88,-456 172.88,-456 166.88,-456 160.88,-450 160.88,-444 160.88,-444 160.88,-432 160.88,-432 160.88,-426 166.88,-420 172.88,-420 172.88,-420 258.25,-420 258.25,-420 264.25,-420 270.25,-426 270.25,-432 270.25,-432 270.25,-444 270.25,-444 270.25,-450 264.25,-456 258.25,-456"/>
<text text-anchor="middle" x="215.57" y="-435" font-family="Helvetica,sans-Serif" font-size="10.00" fill="white">pedeDecisaoInicio</text>
</g>
<!-- A0&#45;&gt;A1 -->
<g id="edge1" class="edge">
<title>A0&#45;&gt;A1</title>
<path fill="none" stroke="white" d="M215.57,-503.89C215.57,-494.23 215.57,-479.25 215.57,-466.12"/>
<polygon fill="white" stroke="white" points="215.57,-456.12 220.07,-466.12 215.57,-461.12 215.57,-466.12 215.57,-466.12 215.57,-466.12 215.57,-461.12 211.07,-466.12 215.57,-456.12 215.57,-456.12"/>
<text text-anchor="middle" x="231.4" y="-477" font-family="Helvetica,sans-Serif" font-size="10.00" fill="white">[iniciar]</text>
</g>
<!-- A2 -->
<g id="node3" class="node">
<title>A2</title>
<path fill="none" stroke="white" d="M182.26,-372C182.26,-372 96.87,-372 96.87,-372 90.87,-372 84.87,-366 84.87,-360 84.87,-360 84.87,-348 84.87,-348 84.87,-342 90.87,-336 96.87,-336 96.87,-336 182.26,-336 182.26,-336 188.26,-336 194.26,-342 194.26,-348 194.26,-348 194.26,-360 194.26,-360 194.26,-366 188.26,-372 182.26,-372"/>
<text text-anchor="middle" x="139.57" y="-351" font-family="Helvetica,sans-Serif" font-size="10.00" fill="white">pedeConfiguracao</text>
</g>
<!-- A1&#45;&gt;A2 -->
<g id="edge2" class="edge">
<title>A1&#45;&gt;A2</title>
<path fill="none" stroke="white" d="M174.5,-419.99C166.56,-415.15 158.94,-409.19 153.23,-402 148.68,-396.28 145.65,-389.09 143.63,-382.08"/>
<polygon fill="white" stroke="white" points="141.32,-372.11 147.96,-380.84 142.45,-376.98 143.57,-381.85 143.57,-381.85 143.57,-381.85 142.45,-376.98 139.19,-382.87 141.32,-372.11 141.32,-372.11"/>
<text text-anchor="middle" x="180.24" y="-393" font-family="Helvetica,sans-Serif" font-size="10.00" fill="white">[iniciarJogo]</text>
</g>
<!-- A3 -->
<g id="node4" class="node">
<title>A3</title>
<path fill="none" stroke="white" d="M185.21,-288C185.21,-288 89.92,-288 89.92,-288 83.92,-288 77.92,-282 77.92,-276 77.92,-276 77.92,-264 77.92,-264 77.92,-258 83.92,-252 89.92,-252 89.92,-252 185.21,-252 185.21,-252 191.21,-252 197.21,-258 197.21,-264 197.21,-264 197.21,-276 197.21,-276 197.21,-282 191.21,-288 185.21,-288"/>
<text text-anchor="middle" x="137.57" y="-267" font-family="Helvetica,sans-Serif" font-size="10.00" fill="white">pedeDecisaoJogada</text>
</g>
<!-- A1&#45;&gt;A3 -->
<g id="edge3" class="edge">
<title>A1&#45;&gt;A3</title>
<path fill="none" stroke="white" d="M160.59,-436.76C111.5,-433.25 42.12,-419.46 7.21,-372 -17.81,-337.98 29.28,-309.63 73.69,-291.71"/>
<polygon fill="white" stroke="white" points="83.1,-288.05 75.41,-295.87 78.44,-289.87 73.78,-291.68 73.78,-291.68 73.78,-291.68 78.44,-289.87 72.15,-287.49 83.1,-288.05 83.1,-288.05"/>
<text text-anchor="middle" x="41.74" y="-351" font-family="Helvetica,sans-Serif" font-size="10.00" fill="white">[continuarJogo]</text>
</g>
<!-- A4 -->
<g id="node5" class="node">
<title>A4</title>
<path fill="none" stroke="white" d="M292.48,-372C292.48,-372 224.66,-372 224.66,-372 218.66,-372 212.66,-366 212.66,-360 212.66,-360 212.66,-348 212.66,-348 212.66,-342 218.66,-336 224.66,-336 224.66,-336 292.48,-336 292.48,-336 298.48,-336 304.48,-342 304.48,-348 304.48,-348 304.48,-360 304.48,-360 304.48,-366 298.48,-372 292.48,-372"/>
<text text-anchor="middle" x="258.57" y="-351" font-family="Helvetica,sans-Serif" font-size="10.00" fill="white">assisteJogada</text>
</g>
<!-- A1&#45;&gt;A4 -->
<g id="edge4" class="edge">
<title>A1&#45;&gt;A4</title>
<path fill="none" stroke="white" d="M252.93,-419.9C259.61,-415.09 265.67,-409.17 269.57,-402 272.9,-395.87 272.9,-388.75 271.38,-381.93"/>
<polygon fill="white" stroke="white" points="268.28,-372.32 275.63,-380.46 269.82,-377.08 271.35,-381.84 271.35,-381.84 271.35,-381.84 269.82,-377.08 267.07,-383.22 268.28,-372.32 268.28,-372.32"/>
<text text-anchor="middle" x="297.85" y="-393" font-family="Helvetica,sans-Serif" font-size="10.00" fill="white">[verReplay]</text>
</g>
<!-- A2&#45;&gt;A3 -->
<g id="edge7" class="edge">
<title>A2&#45;&gt;A3</title>
<path fill="none" stroke="white" d="M139.14,-335.61C138.88,-324.77 138.53,-310.6 138.23,-298.29"/>
<polygon fill="white" stroke="white" points="137.98,-288.08 142.73,-297.97 138.1,-293.08 138.23,-298.08 138.23,-298.08 138.23,-298.08 138.1,-293.08 133.73,-298.19 137.98,-288.08 137.98,-288.08"/>
<text text-anchor="middle" x="160.13" y="-309" font-family="Helvetica,sans-Serif" font-size="10.00" fill="white">[avancar]</text>
</g>
<!-- A3&#45;&gt;A3 -->
<g id="edge10" class="edge">
<title>A3&#45;&gt;A3</title>
<path fill="none" stroke="white" d="M197.41,-273.69C207.87,-273.2 215.14,-271.97 215.14,-270 215.14,-268.77 212.3,-267.83 207.62,-267.17"/>
<polygon fill="white" stroke="white" points="197.41,-266.31 207.76,-262.67 202.39,-266.73 207.38,-267.15 207.38,-267.15 207.38,-267.15 202.39,-266.73 207,-271.64 197.41,-266.31 197.41,-266.31"/>
<text text-anchor="middle" x="245.43" y="-267" font-family="Helvetica,sans-Serif" font-size="10.00" fill="white">[undoJogada]</text>
</g>
<!-- A3&#45;&gt;A3 -->
<g id="edge11" class="edge">
<title>A3&#45;&gt;A3</title>
<path fill="none" stroke="white" d="M197.47,-277.47C235.75,-278.93 275.73,-276.44 275.73,-270 275.73,-264.14 242.61,-261.55 207.8,-262.23"/>
<polygon fill="white" stroke="white" points="197.47,-262.53 207.34,-257.74 202.47,-262.39 207.47,-262.24 207.47,-262.24 207.47,-262.24 202.47,-262.39 207.6,-266.74 197.47,-262.53 197.47,-262.53"/>
<text text-anchor="middle" x="303.51" y="-267" font-family="Helvetica,sans-Serif" font-size="10.00" fill="white">[gravarJogo]</text>
</g>
<!-- A5 -->
<g id="node6" class="node">
<title>A5</title>
<path fill="none" stroke="white" d="M237.69,-120C237.69,-120 187.44,-120 187.44,-120 181.44,-120 175.44,-114 175.44,-108 175.44,-108 175.44,-96 175.44,-96 175.44,-90 181.44,-84 187.44,-84 187.44,-84 237.69,-84 237.69,-84 243.69,-84 249.69,-90 249.69,-96 249.69,-96 249.69,-108 249.69,-108 249.69,-114 243.69,-120 237.69,-120"/>
<text text-anchor="middle" x="212.57" y="-99" font-family="Helvetica,sans-Serif" font-size="10.00" fill="white">fimJogada</text>
</g>
<!-- A3&#45;&gt;A5 -->
<g id="edge8" class="edge">
<title>A3&#45;&gt;A5</title>
<path fill="none" stroke="white" d="M132.1,-251.84C126.44,-230.83 120.19,-194.75 133.78,-168 142.45,-150.95 157.79,-136.74 172.65,-125.99"/>
<polygon fill="white" stroke="white" points="181.29,-120.06 175.59,-129.43 177.16,-122.89 173.04,-125.72 173.04,-125.72 173.04,-125.72 177.16,-122.89 170.5,-122.01 181.29,-120.06 181.29,-120.06"/>
<text text-anchor="middle" x="148.46" y="-183" font-family="Helvetica,sans-Serif" font-size="10.00" fill="white">[jogar]</text>
</g>
<!-- A6 -->
<g id="node7" class="node">
<title>A6</title>
<path fill="none" stroke="white" d="M242.68,-204C242.68,-204 182.45,-204 182.45,-204 176.45,-204 170.45,-198 170.45,-192 170.45,-192 170.45,-180 170.45,-180 170.45,-174 176.45,-168 182.45,-168 182.45,-168 242.68,-168 242.68,-168 248.68,-168 254.68,-174 254.68,-180 254.68,-180 254.68,-192 254.68,-192 254.68,-198 248.68,-204 242.68,-204"/>
<text text-anchor="middle" x="212.57" y="-183" font-family="Helvetica,sans-Serif" font-size="10.00" fill="white">jogaMinijogo</text>
</g>
<!-- A3&#45;&gt;A6 -->
<g id="edge9" class="edge">
<title>A3&#45;&gt;A6</title>
<path fill="none" stroke="white" d="M133.85,-251.62C132.79,-242.14 133.17,-230.62 138.78,-222 144.29,-213.53 152.45,-207.07 161.36,-202.15"/>
<polygon fill="white" stroke="white" points="170.44,-197.72 163.42,-206.15 165.94,-199.91 161.45,-202.1 161.45,-202.1 161.45,-202.1 165.94,-199.91 159.48,-198.05 170.44,-197.72 170.44,-197.72"/>
<text text-anchor="middle" x="175.96" y="-225" font-family="Helvetica,sans-Serif" font-size="10.00" fill="white">[aceitarMinijogo]</text>
</g>
<!-- A7 -->
<g id="node8" class="node">
<title>A7</title>
<path fill="none" stroke="white" d="M232.07,-36C232.07,-36 193.06,-36 193.06,-36 187.06,-36 181.06,-30 181.06,-24 181.06,-24 181.06,-12 181.06,-12 181.06,-6 187.06,0 193.06,0 193.06,0 232.07,0 232.07,0 238.07,0 244.07,-6 244.07,-12 244.07,-12 244.07,-24 244.07,-24 244.07,-30 238.07,-36 232.07,-36"/>
<text text-anchor="middle" x="212.57" y="-15" font-family="Helvetica,sans-Serif" font-size="10.00" fill="white">fimJogo</text>
</g>
<!-- A3&#45;&gt;A7 -->
<g id="edge12" class="edge">
<title>A3&#45;&gt;A7</title>
<path fill="none" stroke="white" d="M126.98,-251.62C112.88,-226.11 91.35,-177.32 106.34,-138 121.3,-98.78 155.79,-64.28 181.44,-42.66"/>
<polygon fill="white" stroke="white" points="189.42,-36.11 184.55,-45.93 185.55,-39.28 181.69,-42.46 181.69,-42.46 181.69,-42.46 185.55,-39.28 178.83,-38.98 189.42,-36.11 189.42,-36.11"/>
<text text-anchor="middle" x="125.18" y="-141" font-family="Helvetica,sans-Serif" font-size="10.00" fill="white">[desistir]</text>
</g>
<!-- A4&#45;&gt;A1 -->
<g id="edge6" class="edge">
<title>A4&#45;&gt;A1</title>
<path fill="none" stroke="white" d="M227.96,-372.09C221.84,-377.02 216.24,-383 212.79,-390 209.84,-395.96 209.05,-402.88 209.34,-409.55"/>
<polygon fill="white" stroke="white" points="210.53,-419.65 204.89,-410.24 209.94,-414.68 209.36,-409.72 209.36,-409.72 209.36,-409.72 209.94,-414.68 213.82,-409.19 210.53,-419.65 210.53,-419.65"/>
<text text-anchor="middle" x="239.96" y="-393" font-family="Helvetica,sans-Serif" font-size="10.00" fill="white">[sairReplay]</text>
</g>
<!-- A4&#45;&gt;A4 -->
<g id="edge5" class="edge">
<title>A4&#45;&gt;A4</title>
<path fill="none" stroke="white" d="M304.56,-361.68C314.93,-360.99 322.52,-358.43 322.52,-354 322.52,-351.23 319.56,-349.19 314.8,-347.88"/>
<polygon fill="white" stroke="white" points="304.56,-346.32 315.12,-343.38 309.5,-347.07 314.44,-347.83 314.44,-347.83 314.44,-347.83 309.5,-347.07 313.76,-352.28 304.56,-346.32 304.56,-346.32"/>
<text text-anchor="middle" x="343.08" y="-351" font-family="Helvetica,sans-Serif" font-size="10.00" fill="white">[avancar]</text>
</g>
<!-- A5&#45;&gt;A3 -->
<g id="edge13" class="edge">
<title>A5&#45;&gt;A3</title>
<path fill="none" stroke="white" d="M249.66,-111.35C264.16,-116.55 279.47,-124.86 288.57,-138 380.36,-270.67 308.84,-216.19 294.57,-234 283.39,-247.94 244.16,-256.69 207.71,-261.96"/>
<polygon fill="white" stroke="white" points="197.53,-263.35 206.83,-257.53 202.48,-262.67 207.44,-261.99 207.44,-261.99 207.44,-261.99 202.48,-262.67 208.05,-266.45 197.53,-263.35 197.53,-263.35"/>
<text text-anchor="middle" x="349.13" y="-183" font-family="Helvetica,sans-Serif" font-size="10.00" fill="white">[avancar]</text>
</g>
<!-- A5&#45;&gt;A7 -->
<g id="edge14" class="edge">
<title>A5&#45;&gt;A7</title>
<path fill="none" stroke="white" d="M212.57,-83.61C212.57,-72.77 212.57,-58.6 212.57,-46.29"/>
<polygon fill="white" stroke="white" points="212.57,-36.08 217.07,-46.08 212.57,-41.08 212.57,-46.08 212.57,-46.08 212.57,-46.08 212.57,-41.08 208.07,-46.08 212.57,-36.08 212.57,-36.08"/>
<text text-anchor="middle" x="241.75" y="-57" font-family="Helvetica,sans-Serif" font-size="10.00" fill="white">[ganharJogo]</text>
</g>
<!-- A6&#45;&gt;A3 -->
<g id="edge15" class="edge">
<title>A6&#45;&gt;A3</title>
<path fill="none" stroke="white" d="M216.38,-204.38C217.49,-213.85 217.16,-225.37 211.57,-234 208.65,-238.51 204.98,-242.44 200.84,-245.88"/>
<polygon fill="white" stroke="white" points="192.39,-251.9 197.92,-242.44 196.46,-249 200.53,-246.1 200.53,-246.1 200.53,-246.1 196.46,-249 203.15,-249.77 192.39,-251.9 192.39,-251.9"/>
<text text-anchor="middle" x="253.52" y="-225" font-family="Helvetica,sans-Serif" font-size="10.00" fill="white">[ganharMinijogo]</text>
</g>
<!-- A6&#45;&gt;A5 -->
<g id="edge16" class="edge">
<title>A6&#45;&gt;A5</title>
<path fill="none" stroke="white" d="M212.57,-167.61C212.57,-156.77 212.57,-142.6 212.57,-130.29"/>
<polygon fill="white" stroke="white" points="212.57,-120.08 217.07,-130.08 212.57,-125.08 212.57,-130.08 212.57,-130.08 212.57,-130.08 212.57,-125.08 208.07,-130.08 212.57,-120.08 212.57,-120.08"/>
<text text-anchor="middle" x="248.4" y="-141" font-family="Helvetica,sans-Serif" font-size="10.00" fill="white">[perderMinijogo]</text>
</g>
<!-- A7&#45;&gt;A1 -->
<g id="edge17" class="edge">
<title>A7&#45;&gt;A1</title>
<path fill="none" stroke="white" d="M244.16,-19.7C295.54,-22.71 391.57,-36.91 391.57,-101 391.57,-355 391.57,-355 391.57,-355 391.57,-405.77 330.64,-425.19 280.48,-432.57"/>
<polygon fill="white" stroke="white" points="270.29,-433.93 279.61,-428.14 275.25,-433.26 280.2,-432.6 280.2,-432.6 280.2,-432.6 275.25,-433.26 280.8,-437.06 270.29,-433.93 270.29,-433.93"/>
<text text-anchor="middle" x="412.13" y="-225" font-family="Helvetica,sans-Serif" font-size="10.00" fill="white">[avancar]</text>
</g>
</g>
</svg>
