<?xml version="1.0" encoding="UTF-8" standalone="no"?>
<!DOCTYPE svg PUBLIC "-//W3C//DTD SVG 1.1//EN"
 "http://www.w3.org/Graphics/SVG/1.1/DTD/svg11.dtd">
<!-- Generated by graphviz version 2.40.1 (20161225.0304)
 -->
<!-- Title: G Pages: 1 -->
<svg width="913pt" height="534pt"
 viewBox="0.00 0.00 913.12 534.00" xmlns="http://www.w3.org/2000/svg" xmlns:xlink="http://www.w3.org/1999/xlink">
<g id="graph0" class="graph" transform="scale(1 1) rotate(0) translate(4 530)">
<title>G</title>
<polygon fill="#ffffff" stroke="transparent" points="-4,4 -4,-530 909.123,-530 909.123,4 -4,4"/>
<!-- A0 -->
<g id="node1" class="node">
<title>A0</title>
<ellipse fill="none" stroke="#000000" cx="708" cy="-515" rx="11" ry="11"/>
</g>
<!-- A1 -->
<g id="node2" class="node">
<title>A1</title>
<path fill="none" stroke="#000000" d="M754.3646,-456C754.3646,-456 661.6354,-456 661.6354,-456 655.6354,-456 649.6354,-450 649.6354,-444 649.6354,-444 649.6354,-432 649.6354,-432 649.6354,-426 655.6354,-420 661.6354,-420 661.6354,-420 754.3646,-420 754.3646,-420 760.3646,-420 766.3646,-426 766.3646,-432 766.3646,-432 766.3646,-444 766.3646,-444 766.3646,-450 760.3646,-456 754.3646,-456"/>
<text text-anchor="middle" x="708" y="-435" font-family="Helvetica,sans-Serif" font-size="10.00" fill="#000000">{pedeDecisaoInicio}</text>
</g>
<!-- A0&#45;&gt;A1 -->
<g id="edge1" class="edge">
<title>A0&#45;&gt;A1</title>
<path fill="none" stroke="#000000" d="M708,-503.9678C708,-494.124 708,-479.2813 708,-466.1664"/>
<polygon fill="#000000" stroke="#000000" points="708,-456.1474 712.5001,-466.1473 708,-461.1474 708.0001,-466.1474 708.0001,-466.1474 708.0001,-466.1474 708,-461.1474 703.5001,-466.1474 708,-456.1474 708,-456.1474"/>
<text text-anchor="middle" x="793.5795" y="-477" font-family="Helvetica,sans-Serif" font-size="10.00" fill="#000000">[new QuatroEmLinhaMaquinaEstados]</text>
</g>
<!-- A2 -->
<g id="node3" class="node">
<title>A2</title>
<path fill="none" stroke="#000000" d="M329.3736,-372C329.3736,-372 236.6264,-372 236.6264,-372 230.6264,-372 224.6264,-366 224.6264,-360 224.6264,-360 224.6264,-348 224.6264,-348 224.6264,-342 230.6264,-336 236.6264,-336 236.6264,-336 329.3736,-336 329.3736,-336 335.3736,-336 341.3736,-342 341.3736,-348 341.3736,-348 341.3736,-360 341.3736,-360 341.3736,-366 335.3736,-372 329.3736,-372"/>
<text text-anchor="middle" x="283" y="-351" font-family="Helvetica,sans-Serif" font-size="10.00" fill="#000000">{pedeConfiguracao}</text>
</g>
<!-- A1&#45;&gt;A2 -->
<g id="edge2" class="edge">
<title>A1&#45;&gt;A2</title>
<path fill="none" stroke="#000000" d="M649.6675,-430.9457C601.0214,-424.6519 530.0075,-414.5087 468.661,-402 429.6179,-394.039 386.5007,-383.0302 351.6527,-373.5635"/>
<polygon fill="#000000" stroke="#000000" points="341.5865,-370.8096 352.4196,-369.108 346.4093,-372.1291 351.232,-373.4485 351.232,-373.4485 351.232,-373.4485 346.4093,-372.1291 350.0445,-377.789 341.5865,-370.8096 341.5865,-370.8096"/>
<text text-anchor="middle" x="494.6695" y="-393" font-family="Helvetica,sans-Serif" font-size="10.00" fill="#000000">[iniciarJogo]</text>
</g>
<!-- A3 -->
<g id="node4" class="node">
<title>A3</title>
<path fill="none" stroke="#000000" d="M228.8241,-288C228.8241,-288 127.1759,-288 127.1759,-288 121.1759,-288 115.1759,-282 115.1759,-276 115.1759,-276 115.1759,-264 115.1759,-264 115.1759,-258 121.1759,-252 127.1759,-252 127.1759,-252 228.8241,-252 228.8241,-252 234.8241,-252 240.8241,-258 240.8241,-264 240.8241,-264 240.8241,-276 240.8241,-276 240.8241,-282 234.8241,-288 228.8241,-288"/>
<text text-anchor="middle" x="178" y="-267" font-family="Helvetica,sans-Serif" font-size="10.00" fill="#000000">{pedeDecisaoJogada}</text>
</g>
<!-- A1&#45;&gt;A3 -->
<g id="edge3" class="edge">
<title>A1&#45;&gt;A3</title>
<path fill="none" stroke="#000000" d="M667.5228,-419.9714C617.2471,-398.053 528.5048,-360.911 450,-336 383.6148,-314.9348 306.3026,-296.7688 251.1084,-284.8589"/>
<polygon fill="#000000" stroke="#000000" points="241.0674,-282.7086 251.7881,-280.4025 245.9566,-283.7556 250.8457,-284.8027 250.8457,-284.8027 250.8457,-284.8027 245.9566,-283.7556 249.9033,-289.2029 241.0674,-282.7086 241.0674,-282.7086"/>
<text text-anchor="middle" x="583.1785" y="-351" font-family="Helvetica,sans-Serif" font-size="10.00" fill="#000000">[continuarJogo]</text>
</g>
<!-- A4 -->
<g id="node5" class="node">
<title>A4</title>
<path fill="none" stroke="#000000" d="M409.0899,-120C409.0899,-120 334.9101,-120 334.9101,-120 328.9101,-120 322.9101,-114 322.9101,-108 322.9101,-108 322.9101,-96 322.9101,-96 322.9101,-90 328.9101,-84 334.9101,-84 334.9101,-84 409.0899,-84 409.0899,-84 415.0899,-84 421.0899,-90 421.0899,-96 421.0899,-96 421.0899,-108 421.0899,-108 421.0899,-114 415.0899,-120 409.0899,-120"/>
<text text-anchor="middle" x="372" y="-99" font-family="Helvetica,sans-Serif" font-size="10.00" fill="#000000">{assisteJogada}</text>
</g>
<!-- A1&#45;&gt;A4 -->
<g id="edge4" class="edge">
<title>A1&#45;&gt;A4</title>
<path fill="none" stroke="#000000" d="M708,-419.9756C708,-402.9658 708,-376.75 708,-354 708,-354 708,-354 708,-186 708,-129.6532 527.9076,-110.7877 431.4187,-104.7238"/>
<polygon fill="#000000" stroke="#000000" points="421.2171,-104.1107 431.4691,-100.2187 426.2081,-104.4107 431.1991,-104.7106 431.1991,-104.7106 431.1991,-104.7106 426.2081,-104.4107 430.9291,-109.2025 421.2171,-104.1107 421.2171,-104.1107"/>
<text text-anchor="middle" x="733.2805" y="-267" font-family="Helvetica,sans-Serif" font-size="10.00" fill="#000000">[verReplay]</text>
</g>
<!-- A2&#45;&gt;A2 -->
<g id="edge8" class="edge">
<title>A2&#45;&gt;A2</title>
<path fill="none" stroke="#000000" d="M341.4548,-361.4131C351.8944,-360.4495 359.1865,-357.9785 359.1865,-354 359.1865,-351.5134 356.338,-349.6157 351.653,-348.3069"/>
<polygon fill="#000000" stroke="#000000" points="341.4548,-346.5869 352.064,-343.8127 346.3852,-347.4185 351.3156,-348.25 351.3156,-348.25 351.3156,-348.25 346.3852,-347.4185 350.5672,-352.6874 341.4548,-346.5869 341.4548,-346.5869"/>
<text text-anchor="middle" x="400.3085" y="-351" font-family="Helvetica,sans-Serif" font-size="10.00" fill="#000000">[adicionarJogador]</text>
</g>
<!-- A2&#45;&gt;A3 -->
<g id="edge9" class="edge">
<title>A2&#45;&gt;A3</title>
<path fill="none" stroke="#000000" d="M224.559,-340.1255C204.1431,-334.0165 184.7942,-326.3338 178.756,-318 174.7768,-312.508 173.2509,-305.6574 173.0208,-298.867"/>
<polygon fill="#000000" stroke="#000000" points="173.5593,-288.4496 177.537,-298.6686 173.3011,-293.4429 173.043,-298.4363 173.043,-298.4363 173.043,-298.4363 173.3011,-293.4429 168.549,-298.2039 173.5593,-288.4496 173.5593,-288.4496"/>
<text text-anchor="middle" x="219.122" y="-309" font-family="Helvetica,sans-Serif" font-size="10.00" fill="#000000">[adicionarJogador]</text>
</g>
<!-- A3&#45;&gt;A2 -->
<g id="edge16" class="edge">
<title>A3&#45;&gt;A2</title>
<path fill="none" stroke="#000000" d="M235.0573,-288.0669C244.4914,-292.8386 253.595,-298.7454 261,-306 266.6723,-311.5571 271.0249,-318.8495 274.3013,-326.0664"/>
<polygon fill="#000000" stroke="#000000" points="278.1251,-335.6908 270.2508,-328.0589 276.2789,-331.0441 274.4328,-326.3974 274.4328,-326.3974 274.4328,-326.3974 276.2789,-331.0441 278.6148,-324.7359 278.1251,-335.6908 278.1251,-335.6908"/>
<text text-anchor="middle" x="295.6695" y="-309" font-family="Helvetica,sans-Serif" font-size="10.00" fill="#000000">[iniciarJogo]</text>
</g>
<!-- A3&#45;&gt;A3 -->
<g id="edge10" class="edge">
<title>A3&#45;&gt;A3</title>
<path fill="none" stroke="#000000" d="M241.0995,-271.8298C251.6393,-271.5738 258.912,-270.9639 258.912,-270 258.912,-269.3976 256.0711,-268.9334 251.3672,-268.6075"/>
<polygon fill="#000000" stroke="#000000" points="241.0995,-268.1702 251.282,-264.0999 246.095,-268.383 251.0904,-268.5958 251.0904,-268.5958 251.0904,-268.5958 246.095,-268.383 250.8989,-273.0917 241.0995,-268.1702 241.0995,-268.1702"/>
<text text-anchor="middle" x="285.0265" y="-267" font-family="Helvetica,sans-Serif" font-size="10.00" fill="#000000">[jogarFicha]</text>
</g>
<!-- A3&#45;&gt;A3 -->
<g id="edge13" class="edge">
<title>A3&#45;&gt;A3</title>
<path fill="none" stroke="#000000" d="M240.9355,-273.8104C276.2902,-274.3668 311.141,-273.0967 311.141,-270 311.141,-267.2057 282.7646,-265.8987 251.2469,-266.0789"/>
<polygon fill="#000000" stroke="#000000" points="240.9355,-266.1896 250.8865,-261.5824 245.9352,-266.1359 250.9349,-266.0821 250.9349,-266.0821 250.9349,-266.0821 245.9352,-266.1359 250.9833,-270.5819 240.9355,-266.1896 240.9355,-266.1896"/>
<text text-anchor="middle" x="341.4355" y="-267" font-family="Helvetica,sans-Serif" font-size="10.00" fill="#000000">[undoJogada]</text>
</g>
<!-- A3&#45;&gt;A3 -->
<g id="edge14" class="edge">
<title>A3&#45;&gt;A3</title>
<path fill="none" stroke="#000000" d="M241.1975,-275.1099C299.4109,-277.0866 371.73,-275.3833 371.73,-270 371.73,-264.9216 307.3713,-263.1181 251.2093,-264.5896"/>
<polygon fill="#000000" stroke="#000000" points="241.1975,-264.8901 251.058,-260.092 246.1953,-264.74 251.193,-264.59 251.193,-264.59 251.193,-264.59 246.1953,-264.74 251.3281,-269.088 241.1975,-264.8901 241.1975,-264.8901"/>
<text text-anchor="middle" x="416.7365" y="-267" font-family="Helvetica,sans-Serif" font-size="10.00" fill="#000000">[jogarFichaEspecial]</text>
</g>
<!-- A3&#45;&gt;A3 -->
<g id="edge17" class="edge">
<title>A3&#45;&gt;A3</title>
<path fill="none" stroke="#000000" d="M240.9707,-275.8908C327.0836,-279.8489 461.743,-277.8853 461.743,-270 461.743,-262.4151 337.1455,-260.3093 251.0109,-263.6827"/>
<polygon fill="#000000" stroke="#000000" points="240.9707,-264.1092 250.7706,-259.1887 245.9662,-263.8969 250.9616,-263.6847 250.9616,-263.6847 250.9616,-263.6847 245.9662,-263.8969 251.1527,-268.1806 240.9707,-264.1092 240.9707,-264.1092"/>
<text text-anchor="middle" x="495.9215" y="-267" font-family="Helvetica,sans-Serif" font-size="10.00" fill="#000000">[continuarJogo]</text>
</g>
<!-- A3&#45;&gt;A4 -->
<g id="edge18" class="edge">
<title>A3&#45;&gt;A4</title>
<path fill="none" stroke="#000000" d="M229.5825,-251.8965C239.6207,-247.0091 249.6166,-241.0688 258,-234 285.035,-211.2043 279.6001,-194.9985 302.439,-168 314.6371,-153.5803 329.6855,-138.9788 342.6621,-127.1887"/>
<polygon fill="#000000" stroke="#000000" points="350.4301,-120.2378 345.9787,-130.2596 346.704,-123.572 342.9779,-126.9061 342.9779,-126.9061 342.9779,-126.9061 346.704,-123.572 339.9772,-123.5527 350.4301,-120.2378 350.4301,-120.2378"/>
<text text-anchor="middle" x="327.2805" y="-183" font-family="Helvetica,sans-Serif" font-size="10.00" fill="#000000">[verReplay]</text>
</g>
<!-- A5 -->
<g id="node6" class="node">
<title>A5</title>
<path fill="none" stroke="#000000" d="M269.6827,-36C269.6827,-36 224.3173,-36 224.3173,-36 218.3173,-36 212.3173,-30 212.3173,-24 212.3173,-24 212.3173,-12 212.3173,-12 212.3173,-6 218.3173,0 224.3173,0 224.3173,0 269.6827,0 269.6827,0 275.6827,0 281.6827,-6 281.6827,-12 281.6827,-12 281.6827,-24 281.6827,-24 281.6827,-30 275.6827,-36 269.6827,-36"/>
<text text-anchor="middle" x="247" y="-15" font-family="Helvetica,sans-Serif" font-size="10.00" fill="#000000">{fimJogo}</text>
</g>
<!-- A3&#45;&gt;A5 -->
<g id="edge11" class="edge">
<title>A3&#45;&gt;A5</title>
<path fill="none" stroke="#000000" d="M149.1872,-251.8959C115.6967,-228.3157 66.7995,-184.5734 81.771,-138 95.8298,-94.2658 105.1399,-81.4165 142,-54 159.7252,-40.816 182.6299,-32.2208 202.5214,-26.7484"/>
<polygon fill="#000000" stroke="#000000" points="212.3059,-24.235 203.7399,-31.0815 207.4631,-25.479 202.6203,-26.723 202.6203,-26.723 202.6203,-26.723 207.4631,-25.479 201.5007,-22.3645 212.3059,-24.235 212.3059,-24.235"/>
<text text-anchor="middle" x="108.1145" y="-141" font-family="Helvetica,sans-Serif" font-size="10.00" fill="#000000">[jogarFicha]</text>
</g>
<!-- A3&#45;&gt;A5 -->
<g id="edge15" class="edge">
<title>A3&#45;&gt;A5</title>
<path fill="none" stroke="#000000" d="M186.5538,-251.7013C197.066,-228.5151 214.7639,-187.0975 225,-150 234.6676,-114.9627 240.7353,-73.4522 243.9926,-46.4652"/>
<polygon fill="#000000" stroke="#000000" points="245.1809,-36.1926 248.5019,-46.6435 244.6063,-41.1595 244.0317,-46.1264 244.0317,-46.1264 244.0317,-46.1264 244.6063,-41.1595 239.5615,-45.6092 245.1809,-36.1926 245.1809,-36.1926"/>
<text text-anchor="middle" x="245.611" y="-141" font-family="Helvetica,sans-Serif" font-size="10.00" fill="#000000">[desistir]</text>
</g>
<!-- A6 -->
<g id="node7" class="node">
<title>A6</title>
<path fill="none" stroke="#000000" d="M440.2962,-204C440.2962,-204 373.7038,-204 373.7038,-204 367.7038,-204 361.7038,-198 361.7038,-192 361.7038,-192 361.7038,-180 361.7038,-180 361.7038,-174 367.7038,-168 373.7038,-168 373.7038,-168 440.2962,-168 440.2962,-168 446.2962,-168 452.2962,-174 452.2962,-180 452.2962,-180 452.2962,-192 452.2962,-192 452.2962,-198 446.2962,-204 440.2962,-204"/>
<text text-anchor="middle" x="407" y="-183" font-family="Helvetica,sans-Serif" font-size="10.00" fill="#000000">{jogaMinijogo}</text>
</g>
<!-- A3&#45;&gt;A6 -->
<g id="edge12" class="edge">
<title>A3&#45;&gt;A6</title>
<path fill="none" stroke="#000000" d="M235.5231,-251.9772C251.1045,-246.6367 267.8478,-240.4721 283,-234 293.6815,-229.4375 295.5639,-226.6306 306.216,-222 320.8228,-215.6502 336.9479,-209.5164 351.9367,-204.1658"/>
<polygon fill="#000000" stroke="#000000" points="361.595,-200.7685 353.6549,-208.3318 356.8783,-202.4276 352.1616,-204.0868 352.1616,-204.0868 352.1616,-204.0868 356.8783,-202.4276 350.6684,-199.8417 361.595,-200.7685 361.595,-200.7685"/>
<text text-anchor="middle" x="342.392" y="-225" font-family="Helvetica,sans-Serif" font-size="10.00" fill="#000000">[aceitarMinijogo]</text>
</g>
<!-- A4&#45;&gt;A1 -->
<g id="edge6" class="edge">
<title>A4&#45;&gt;A1</title>
<path fill="none" stroke="#000000" d="M421.1694,-103.8161C481.8959,-106.9693 587.959,-115.4597 676,-138 731.2474,-152.1444 795,-128.9707 795,-186 795,-354 795,-354 795,-354 795,-379.8343 774.9007,-400.2402 754.0237,-414.4676"/>
<polygon fill="#000000" stroke="#000000" points="745.4007,-419.9945 751.3915,-410.8096 749.6103,-417.2963 753.8198,-414.5982 753.8198,-414.5982 753.8198,-414.5982 749.6103,-417.2963 756.2481,-418.3868 745.4007,-419.9945 745.4007,-419.9945"/>
<text text-anchor="middle" x="815.5615" y="-267" font-family="Helvetica,sans-Serif" font-size="10.00" fill="#000000">[avancar]</text>
</g>
<!-- A4&#45;&gt;A4 -->
<g id="edge5" class="edge">
<title>A4&#45;&gt;A4</title>
<path fill="none" stroke="#000000" d="M421.2962,-109.6207C431.7473,-108.8469 439.2945,-106.3066 439.2945,-102 439.2945,-99.2411 436.1971,-97.207 431.2231,-95.898"/>
<polygon fill="#000000" stroke="#000000" points="421.2962,-94.3793 431.8617,-91.4434 426.2386,-95.1354 431.1811,-95.8916 431.1811,-95.8916 431.1811,-95.8916 426.2386,-95.1354 430.5006,-100.3399 421.2962,-94.3793 421.2962,-94.3793"/>
<text text-anchor="middle" x="459.856" y="-99" font-family="Helvetica,sans-Serif" font-size="10.00" fill="#000000">[avancar]</text>
</g>
<!-- A4&#45;&gt;A5 -->
<g id="edge7" class="edge">
<title>A4&#45;&gt;A5</title>
<path fill="none" stroke="#000000" d="M324.3571,-83.8749C313.569,-78.8201 302.4746,-72.8157 292.877,-66 283.9953,-59.6927 275.4194,-51.5013 268.1337,-43.6762"/>
<polygon fill="#000000" stroke="#000000" points="261.3146,-36.0565 271.3367,-40.5073 264.649,-39.7824 267.9834,-43.5082 267.9834,-43.5082 267.9834,-43.5082 264.649,-39.7824 264.6302,-46.5092 261.3146,-36.0565 261.3146,-36.0565"/>
<text text-anchor="middle" x="312.5615" y="-57" font-family="Helvetica,sans-Serif" font-size="10.00" fill="#000000">[avancar]</text>
</g>
<!-- A5&#45;&gt;A1 -->
<g id="edge24" class="edge">
<title>A5&#45;&gt;A1</title>
<path fill="none" stroke="#000000" d="M281.9404,-19.0477C412.4629,-23.4175 864,-42.8119 864,-102 864,-354 864,-354 864,-354 864,-396.5732 818.4022,-417.6654 776.5108,-428.0597"/>
<polygon fill="#000000" stroke="#000000" points="766.5325,-430.3589 775.2667,-423.7284 771.4048,-429.2362 776.2771,-428.1135 776.2771,-428.1135 776.2771,-428.1135 771.4048,-429.2362 777.2876,-432.4986 766.5325,-430.3589 766.5325,-430.3589"/>
<text text-anchor="middle" x="884.5615" y="-225" font-family="Helvetica,sans-Serif" font-size="10.00" fill="#000000">[avancar]</text>
</g>
<!-- A5&#45;&gt;A2 -->
<g id="edge25" class="edge">
<title>A5&#45;&gt;A2</title>
<path fill="none" stroke="#000000" d="M212.1348,-22.4386C144.0491,-32.0849 0,-57.7252 0,-102 0,-270 0,-270 0,-270 0,-314.6315 130.9944,-337.4146 214.7388,-347.4195"/>
<polygon fill="#000000" stroke="#000000" points="224.7054,-348.5768 214.253,-351.8932 219.7387,-348 214.7721,-347.4232 214.7721,-347.4232 214.7721,-347.4232 219.7387,-348 215.2912,-342.9533 224.7054,-348.5768 224.7054,-348.5768"/>
<text text-anchor="middle" x="26.6695" y="-183" font-family="Helvetica,sans-Serif" font-size="10.00" fill="#000000">[iniciarJogo]</text>
</g>
<!-- A5&#45;&gt;A3 -->
<g id="edge26" class="edge">
<title>A5&#45;&gt;A3</title>
<path fill="none" stroke="#000000" d="M225.9647,-36.2611C202.8611,-57.8521 167.1174,-96.1747 152.643,-138 140.5444,-172.96 153.1543,-215.2414 164.5102,-242.3697"/>
<polygon fill="#000000" stroke="#000000" points="168.5892,-251.6371 160.442,-244.2973 166.5749,-247.0608 164.5607,-242.4844 164.5607,-242.4844 164.5607,-242.4844 166.5749,-247.0608 168.6794,-240.6716 168.5892,-251.6371 168.5892,-251.6371"/>
<text text-anchor="middle" x="187.1785" y="-141" font-family="Helvetica,sans-Serif" font-size="10.00" fill="#000000">[continuarJogo]</text>
</g>
<!-- A5&#45;&gt;A4 -->
<g id="edge27" class="edge">
<title>A5&#45;&gt;A4</title>
<path fill="none" stroke="#000000" d="M281.7428,-27.8243C298.586,-33.6753 318.4764,-42.2783 334,-54 341.8486,-59.9264 348.9881,-67.8396 354.9055,-75.5291"/>
<polygon fill="#000000" stroke="#000000" points="360.8228,-83.6807 351.3066,-78.2316 357.8855,-79.6343 354.9483,-75.588 354.9483,-75.588 354.9483,-75.588 357.8855,-79.6343 358.5899,-72.9445 360.8228,-83.6807 360.8228,-83.6807"/>
<text text-anchor="middle" x="371.2805" y="-57" font-family="Helvetica,sans-Serif" font-size="10.00" fill="#000000">[verReplay]</text>
</g>
<!-- A6&#45;&gt;A2 -->
<g id="edge21" class="edge">
<title>A6&#45;&gt;A2</title>
<path fill="none" stroke="#000000" d="M452.3779,-190.0113C498.0165,-194.9449 564.2388,-204.8503 583,-222 604.8512,-241.9742 610.6195,-264.9835 592,-288 562.3469,-324.6556 433.1944,-341.8426 351.5356,-349.1791"/>
<polygon fill="#000000" stroke="#000000" points="341.3301,-350.0671 350.9023,-344.7171 346.3113,-349.6336 351.2924,-349.2001 351.2924,-349.2001 351.2924,-349.2001 346.3113,-349.6336 351.6826,-353.6832 341.3301,-350.0671 341.3301,-350.0671"/>
<text text-anchor="middle" x="629.6695" y="-267" font-family="Helvetica,sans-Serif" font-size="10.00" fill="#000000">[iniciarJogo]</text>
</g>
<!-- A6&#45;&gt;A3 -->
<g id="edge19" class="edge">
<title>A6&#45;&gt;A3</title>
<path fill="none" stroke="#000000" d="M400.7991,-204.2162C396.3399,-214.5498 389.28,-226.8155 379,-234 358.552,-248.2907 299.8371,-257.749 251.1108,-263.3691"/>
<polygon fill="#000000" stroke="#000000" points="240.8821,-264.5104 250.3214,-258.9291 245.8513,-263.9559 250.8205,-263.4014 250.8205,-263.4014 250.8205,-263.4014 245.8513,-263.9559 251.3195,-267.8736 240.8821,-264.5104 240.8821,-264.5104"/>
<text text-anchor="middle" x="446.1195" y="-225" font-family="Helvetica,sans-Serif" font-size="10.00" fill="#000000">[enviarRespostaMinijogo]</text>
</g>
<!-- A6&#45;&gt;A3 -->
<g id="edge22" class="edge">
<title>A6&#45;&gt;A3</title>
<path fill="none" stroke="#000000" d="M452.3355,-192.6242C486.843,-199.5111 525.3777,-212.3791 506,-234 489.3012,-252.6319 342.6427,-262.5994 251.1768,-267.0512"/>
<polygon fill="#000000" stroke="#000000" points="241.1328,-267.5287 250.9077,-262.5588 246.1272,-267.2912 251.1215,-267.0537 251.1215,-267.0537 251.1215,-267.0537 246.1272,-267.2912 251.3353,-271.5486 241.1328,-267.5287 241.1328,-267.5287"/>
<text text-anchor="middle" x="545.1785" y="-225" font-family="Helvetica,sans-Serif" font-size="10.00" fill="#000000">[continuarJogo]</text>
</g>
<!-- A6&#45;&gt;A4 -->
<g id="edge23" class="edge">
<title>A6&#45;&gt;A4</title>
<path fill="none" stroke="#000000" d="M399.4055,-167.7733C394.7732,-156.6557 388.7602,-142.2244 383.5472,-129.7132"/>
<polygon fill="#000000" stroke="#000000" points="379.5797,-120.1912 387.5797,-127.6912 381.5028,-124.8066 383.4259,-129.422 383.4259,-129.422 383.4259,-129.422 381.5028,-124.8066 379.272,-131.1528 379.5797,-120.1912 379.5797,-120.1912"/>
<text text-anchor="middle" x="416.2805" y="-141" font-family="Helvetica,sans-Serif" font-size="10.00" fill="#000000">[verReplay]</text>
</g>
<!-- A6&#45;&gt;A6 -->
<g id="edge20" class="edge">
<title>A6&#45;&gt;A6</title>
<path fill="none" stroke="#000000" d="M452.3049,-193.7015C462.7357,-193.0379 470.398,-190.4707 470.398,-186 470.398,-183.136 467.2534,-181.0531 462.2508,-179.7515"/>
<polygon fill="#000000" stroke="#000000" points="452.3049,-178.2985 462.8504,-175.2914 457.2524,-179.0213 462.1998,-179.7441 462.1998,-179.7441 462.1998,-179.7441 457.2524,-179.0213 461.5493,-184.1969 452.3049,-178.2985 452.3049,-178.2985"/>
<text text-anchor="middle" x="526.5175" y="-183" font-family="Helvetica,sans-Serif" font-size="10.00" fill="#000000">[enviarRespostaMinijogo]</text>
</g>
</g>
</svg>
