<?xml version="1.0" encoding="UTF-8" standalone="no"?>
<!DOCTYPE svg PUBLIC "-//W3C//DTD SVG 1.1//EN"
 "http://www.w3.org/Graphics/SVG/1.1/DTD/svg11.dtd">
<!-- Generated by graphviz version 2.40.1 (20161225.0304)
 -->
<!-- Title: G Pages: 1 -->
<svg width="931pt" height="534pt"
 viewBox="0.00 0.00 931.13 534.00" xmlns="http://www.w3.org/2000/svg" xmlns:xlink="http://www.w3.org/1999/xlink">
<g id="graph0" class="graph" transform="scale(1 1) rotate(0) translate(4 530)">
<title>G</title>
<polygon fill="#ffffff" stroke="transparent" points="-4,4 -4,-530 927.1343,-530 927.1343,4 -4,4"/>
<!-- A0 -->
<g id="node1" class="node">
<title>A0</title>
<ellipse fill="none" stroke="#000000" cx="340.0113" cy="-515" rx="11" ry="11"/>
</g>
<!-- A1 -->
<g id="node2" class="node">
<title>A1</title>
<path fill="none" stroke="#000000" d="M386.3759,-456C386.3759,-456 293.6467,-456 293.6467,-456 287.6467,-456 281.6467,-450 281.6467,-444 281.6467,-444 281.6467,-432 281.6467,-432 281.6467,-426 287.6467,-420 293.6467,-420 293.6467,-420 386.3759,-420 386.3759,-420 392.3759,-420 398.3759,-426 398.3759,-432 398.3759,-432 398.3759,-444 398.3759,-444 398.3759,-450 392.3759,-456 386.3759,-456"/>
<text text-anchor="middle" x="340.0113" y="-435" font-family="Helvetica,sans-Serif" font-size="10.00" fill="#000000">{pedeDecisaoInicio}</text>
</g>
<!-- A0&#45;&gt;A1 -->
<g id="edge1" class="edge">
<title>A0&#45;&gt;A1</title>
<path fill="none" stroke="#000000" d="M340.0113,-503.9678C340.0113,-494.124 340.0113,-479.2813 340.0113,-466.1664"/>
<polygon fill="#000000" stroke="#000000" points="340.0113,-456.1474 344.5114,-466.1473 340.0114,-461.1474 340.0114,-466.1474 340.0114,-466.1474 340.0114,-466.1474 340.0114,-461.1474 335.5114,-466.1474 340.0113,-456.1474 340.0113,-456.1474"/>
<text text-anchor="middle" x="425.5908" y="-477" font-family="Helvetica,sans-Serif" font-size="10.00" fill="#000000">[new QuatroEmLinhaMaquinaEstados]</text>
</g>
<!-- A2 -->
<g id="node3" class="node">
<title>A2</title>
<path fill="none" stroke="#000000" d="M386.3849,-372C386.3849,-372 293.6377,-372 293.6377,-372 287.6377,-372 281.6377,-366 281.6377,-360 281.6377,-360 281.6377,-348 281.6377,-348 281.6377,-342 287.6377,-336 293.6377,-336 293.6377,-336 386.3849,-336 386.3849,-336 392.3849,-336 398.3849,-342 398.3849,-348 398.3849,-348 398.3849,-360 398.3849,-360 398.3849,-366 392.3849,-372 386.3849,-372"/>
<text text-anchor="middle" x="340.0113" y="-351" font-family="Helvetica,sans-Serif" font-size="10.00" fill="#000000">{pedeConfiguracao}</text>
</g>
<!-- A1&#45;&gt;A2 -->
<g id="edge2" class="edge">
<title>A1&#45;&gt;A2</title>
<path fill="none" stroke="#000000" d="M315.3275,-419.7507C310.1926,-414.6318 305.4897,-408.63 302.6723,-402 299.3483,-394.1779 301.8069,-386.529 306.7401,-379.7176"/>
<polygon fill="#000000" stroke="#000000" points="313.4697,-372.1464 310.1897,-382.6102 310.148,-375.8835 306.8263,-379.6207 306.8263,-379.6207 306.8263,-379.6207 310.148,-375.8835 303.4628,-376.6311 313.4697,-372.1464 313.4697,-372.1464"/>
<text text-anchor="middle" x="329.6808" y="-393" font-family="Helvetica,sans-Serif" font-size="10.00" fill="#000000">[iniciarJogo]</text>
</g>
<!-- A3 -->
<g id="node4" class="node">
<title>A3</title>
<path fill="none" stroke="#000000" d="M285.8354,-288C285.8354,-288 184.1872,-288 184.1872,-288 178.1872,-288 172.1872,-282 172.1872,-276 172.1872,-276 172.1872,-264 172.1872,-264 172.1872,-258 178.1872,-252 184.1872,-252 184.1872,-252 285.8354,-252 285.8354,-252 291.8354,-252 297.8354,-258 297.8354,-264 297.8354,-264 297.8354,-276 297.8354,-276 297.8354,-282 291.8354,-288 285.8354,-288"/>
<text text-anchor="middle" x="235.0113" y="-267" font-family="Helvetica,sans-Serif" font-size="10.00" fill="#000000">{pedeDecisaoJogada}</text>
</g>
<!-- A1&#45;&gt;A3 -->
<g id="edge3" class="edge">
<title>A1&#45;&gt;A3</title>
<path fill="none" stroke="#000000" d="M281.8206,-425.0319C253.3503,-415.4387 221.6273,-399.1592 204.6543,-372 190.175,-348.831 202.5523,-318.3948 215.5907,-296.8176"/>
<polygon fill="#000000" stroke="#000000" points="221.1427,-288.1597 219.5326,-299.0067 218.4436,-292.3686 215.7446,-296.5776 215.7446,-296.5776 215.7446,-296.5776 218.4436,-292.3686 211.9565,-294.1484 221.1427,-288.1597 221.1427,-288.1597"/>
<text text-anchor="middle" x="239.1898" y="-351" font-family="Helvetica,sans-Serif" font-size="10.00" fill="#000000">[continuarJogo]</text>
</g>
<!-- A4 -->
<g id="node5" class="node">
<title>A4</title>
<path fill="none" stroke="#000000" d="M437.1012,-120C437.1012,-120 362.9214,-120 362.9214,-120 356.9214,-120 350.9214,-114 350.9214,-108 350.9214,-108 350.9214,-96 350.9214,-96 350.9214,-90 356.9214,-84 362.9214,-84 362.9214,-84 437.1012,-84 437.1012,-84 443.1012,-84 449.1012,-90 449.1012,-96 449.1012,-96 449.1012,-108 449.1012,-108 449.1012,-114 443.1012,-120 437.1012,-120"/>
<text text-anchor="middle" x="400.0113" y="-99" font-family="Helvetica,sans-Serif" font-size="10.00" fill="#000000">{assisteJogada}</text>
</g>
<!-- A1&#45;&gt;A4 -->
<g id="edge4" class="edge">
<title>A1&#45;&gt;A4</title>
<path fill="none" stroke="#000000" d="M398.6506,-433.406C523.2374,-422.8569 803.0113,-394.6428 803.0113,-354 803.0113,-354 803.0113,-354 803.0113,-186 803.0113,-151.3473 571.707,-120.988 459.5702,-108.3059"/>
<polygon fill="#000000" stroke="#000000" points="449.427,-107.1702 459.8657,-103.8109 454.396,-107.7266 459.3649,-108.283 459.3649,-108.283 459.3649,-108.283 454.396,-107.7266 458.8642,-112.755 449.427,-107.1702 449.427,-107.1702"/>
<text text-anchor="middle" x="828.2918" y="-267" font-family="Helvetica,sans-Serif" font-size="10.00" fill="#000000">[verReplay]</text>
</g>
<!-- A2&#45;&gt;A1 -->
<g id="edge11" class="edge">
<title>A2&#45;&gt;A1</title>
<path fill="none" stroke="#000000" d="M351.0309,-372.422C355.0397,-381.2425 358.1266,-392.0324 356.0113,-402 355.4123,-404.8226 354.5762,-407.6925 353.5975,-410.5175"/>
<polygon fill="#000000" stroke="#000000" points="349.8573,-419.8154 349.4145,-408.8584 351.7233,-415.1766 353.5893,-410.5379 353.5893,-410.5379 353.5893,-410.5379 351.7233,-415.1766 357.7642,-412.2173 349.8573,-419.8154 349.8573,-419.8154"/>
<text text-anchor="middle" x="372.0128" y="-393" font-family="Helvetica,sans-Serif" font-size="10.00" fill="#000000">[voltar]</text>
</g>
<!-- A2&#45;&gt;A2 -->
<g id="edge12" class="edge">
<title>A2&#45;&gt;A2</title>
<path fill="none" stroke="#000000" d="M398.4661,-361.4131C408.9057,-360.4495 416.1978,-357.9785 416.1978,-354 416.1978,-351.5134 413.3493,-349.6157 408.6643,-348.3069"/>
<polygon fill="#000000" stroke="#000000" points="398.4661,-346.5869 409.0753,-343.8127 403.3965,-347.4185 408.3269,-348.25 408.3269,-348.25 408.3269,-348.25 403.3965,-347.4185 407.5785,-352.6874 398.4661,-346.5869 398.4661,-346.5869"/>
<text text-anchor="middle" x="457.3198" y="-351" font-family="Helvetica,sans-Serif" font-size="10.00" fill="#000000">[adicionarJogador]</text>
</g>
<!-- A2&#45;&gt;A3 -->
<g id="edge13" class="edge">
<title>A2&#45;&gt;A3</title>
<path fill="none" stroke="#000000" d="M281.5703,-340.1255C261.1544,-334.0165 241.8055,-326.3338 235.7673,-318 231.7881,-312.508 230.2622,-305.6574 230.0321,-298.867"/>
<polygon fill="#000000" stroke="#000000" points="230.5706,-288.4496 234.5483,-298.6686 230.3124,-293.4429 230.0543,-298.4363 230.0543,-298.4363 230.0543,-298.4363 230.3124,-293.4429 225.5603,-298.2039 230.5706,-288.4496 230.5706,-288.4496"/>
<text text-anchor="middle" x="277.1333" y="-309" font-family="Helvetica,sans-Serif" font-size="10.00" fill="#000000">[adicionarJogador]</text>
</g>
<!-- A3&#45;&gt;A2 -->
<g id="edge20" class="edge">
<title>A3&#45;&gt;A2</title>
<path fill="none" stroke="#000000" d="M292.0686,-288.0669C301.5027,-292.8386 310.6063,-298.7454 318.0113,-306 323.6836,-311.5571 328.0362,-318.8495 331.3126,-326.0664"/>
<polygon fill="#000000" stroke="#000000" points="335.1364,-335.6908 327.2621,-328.0589 333.2902,-331.0441 331.4441,-326.3974 331.4441,-326.3974 331.4441,-326.3974 333.2902,-331.0441 335.6261,-324.7359 335.1364,-335.6908 335.1364,-335.6908"/>
<text text-anchor="middle" x="353.6808" y="-309" font-family="Helvetica,sans-Serif" font-size="10.00" fill="#000000">[iniciarJogo]</text>
</g>
<!-- A3&#45;&gt;A3 -->
<g id="edge14" class="edge">
<title>A3&#45;&gt;A3</title>
<path fill="none" stroke="#000000" d="M298.1108,-271.8298C308.6506,-271.5738 315.9233,-270.9639 315.9233,-270 315.9233,-269.3976 313.0824,-268.9334 308.3785,-268.6075"/>
<polygon fill="#000000" stroke="#000000" points="298.1108,-268.1702 308.2933,-264.0999 303.1063,-268.383 308.1017,-268.5958 308.1017,-268.5958 308.1017,-268.5958 303.1063,-268.383 307.9102,-273.0917 298.1108,-268.1702 298.1108,-268.1702"/>
<text text-anchor="middle" x="342.0378" y="-267" font-family="Helvetica,sans-Serif" font-size="10.00" fill="#000000">[jogarFicha]</text>
</g>
<!-- A3&#45;&gt;A3 -->
<g id="edge17" class="edge">
<title>A3&#45;&gt;A3</title>
<path fill="none" stroke="#000000" d="M297.9468,-273.8104C333.3015,-274.3668 368.1523,-273.0967 368.1523,-270 368.1523,-267.2057 339.7759,-265.8987 308.2582,-266.0789"/>
<polygon fill="#000000" stroke="#000000" points="297.9468,-266.1896 307.8978,-261.5824 302.9465,-266.1359 307.9462,-266.0821 307.9462,-266.0821 307.9462,-266.0821 302.9465,-266.1359 307.9946,-270.5819 297.9468,-266.1896 297.9468,-266.1896"/>
<text text-anchor="middle" x="398.4468" y="-267" font-family="Helvetica,sans-Serif" font-size="10.00" fill="#000000">[undoJogada]</text>
</g>
<!-- A3&#45;&gt;A3 -->
<g id="edge18" class="edge">
<title>A3&#45;&gt;A3</title>
<path fill="none" stroke="#000000" d="M298.2088,-275.1099C356.4222,-277.0866 428.7413,-275.3833 428.7413,-270 428.7413,-264.9216 364.3826,-263.1181 308.2206,-264.5896"/>
<polygon fill="#000000" stroke="#000000" points="298.2088,-264.8901 308.0693,-260.092 303.2066,-264.74 308.2043,-264.59 308.2043,-264.59 308.2043,-264.59 303.2066,-264.74 308.3394,-269.088 298.2088,-264.8901 298.2088,-264.8901"/>
<text text-anchor="middle" x="473.7478" y="-267" font-family="Helvetica,sans-Serif" font-size="10.00" fill="#000000">[jogarFichaEspecial]</text>
</g>
<!-- A3&#45;&gt;A3 -->
<g id="edge21" class="edge">
<title>A3&#45;&gt;A3</title>
<path fill="none" stroke="#000000" d="M297.982,-275.8908C384.0949,-279.8489 518.7543,-277.8853 518.7543,-270 518.7543,-262.4151 394.1568,-260.3093 308.0222,-263.6827"/>
<polygon fill="#000000" stroke="#000000" points="297.982,-264.1092 307.7819,-259.1887 302.9775,-263.8969 307.973,-263.6847 307.973,-263.6847 307.973,-263.6847 302.9775,-263.8969 308.164,-268.1806 297.982,-264.1092 297.982,-264.1092"/>
<text text-anchor="middle" x="552.9328" y="-267" font-family="Helvetica,sans-Serif" font-size="10.00" fill="#000000">[continuarJogo]</text>
</g>
<!-- A3&#45;&gt;A4 -->
<g id="edge22" class="edge">
<title>A3&#45;&gt;A4</title>
<path fill="none" stroke="#000000" d="M298.1279,-267.4972C396.5826,-263.0461 577.8991,-252.4445 601.0113,-234 624.2004,-215.4942 628.5816,-191.9057 611.0113,-168 592.8756,-143.325 515.3706,-123.7682 459.5538,-112.5358"/>
<polygon fill="#000000" stroke="#000000" points="449.4032,-110.536 460.0844,-108.054 454.3089,-111.5026 459.2146,-112.4691 459.2146,-112.4691 459.2146,-112.4691 454.3089,-111.5026 458.3447,-116.8842 449.4032,-110.536 449.4032,-110.536"/>
<text text-anchor="middle" x="646.2918" y="-183" font-family="Helvetica,sans-Serif" font-size="10.00" fill="#000000">[verReplay]</text>
</g>
<!-- A5 -->
<g id="node6" class="node">
<title>A5</title>
<path fill="none" stroke="#000000" d="M271.694,-36C271.694,-36 226.3286,-36 226.3286,-36 220.3286,-36 214.3286,-30 214.3286,-24 214.3286,-24 214.3286,-12 214.3286,-12 214.3286,-6 220.3286,0 226.3286,0 226.3286,0 271.694,0 271.694,0 277.694,0 283.694,-6 283.694,-12 283.694,-12 283.694,-24 283.694,-24 283.694,-30 277.694,-36 271.694,-36"/>
<text text-anchor="middle" x="249.0113" y="-15" font-family="Helvetica,sans-Serif" font-size="10.00" fill="#000000">{fimJogo}</text>
</g>
<!-- A3&#45;&gt;A5 -->
<g id="edge15" class="edge">
<title>A3&#45;&gt;A5</title>
<path fill="none" stroke="#000000" d="M172.1647,-254.3166C149.9272,-247.9709 128.1611,-240.5991 119.0113,-234 116.6826,-232.3205 59.661,-152.7334 58.7823,-150 57.1501,-144.9226 57.1501,-143.0774 58.7823,-138 72.8411,-94.2658 81.3436,-80.2958 119.0113,-54 144.1007,-36.4851 177.4429,-27.4712 204.0785,-22.8432"/>
<polygon fill="#000000" stroke="#000000" points="214.2961,-21.2224 205.1246,-27.2336 209.3578,-22.0058 204.4196,-22.7891 204.4196,-22.7891 204.4196,-22.7891 209.3578,-22.0058 203.7145,-18.3447 214.2961,-21.2224 214.2961,-21.2224"/>
<text text-anchor="middle" x="85.1258" y="-141" font-family="Helvetica,sans-Serif" font-size="10.00" fill="#000000">[jogarFicha]</text>
</g>
<!-- A3&#45;&gt;A5 -->
<g id="edge19" class="edge">
<title>A3&#45;&gt;A5</title>
<path fill="none" stroke="#000000" d="M236.0181,-251.8768C238.4239,-208.5739 244.5213,-98.8207 247.4259,-46.5374"/>
<polygon fill="#000000" stroke="#000000" points="247.9948,-36.2976 251.933,-46.5319 247.7174,-41.2899 247.44,-46.2822 247.44,-46.2822 247.44,-46.2822 247.7174,-41.2899 242.9469,-46.0326 247.9948,-36.2976 247.9948,-36.2976"/>
<text text-anchor="middle" x="261.6223" y="-141" font-family="Helvetica,sans-Serif" font-size="10.00" fill="#000000">[desistir]</text>
</g>
<!-- A6 -->
<g id="node7" class="node">
<title>A6</title>
<path fill="none" stroke="#000000" d="M460.3075,-204C460.3075,-204 393.7151,-204 393.7151,-204 387.7151,-204 381.7151,-198 381.7151,-192 381.7151,-192 381.7151,-180 381.7151,-180 381.7151,-174 387.7151,-168 393.7151,-168 393.7151,-168 460.3075,-168 460.3075,-168 466.3075,-168 472.3075,-174 472.3075,-180 472.3075,-180 472.3075,-192 472.3075,-192 472.3075,-198 466.3075,-204 460.3075,-204"/>
<text text-anchor="middle" x="427.0113" y="-183" font-family="Helvetica,sans-Serif" font-size="10.00" fill="#000000">{jogaMinijogo}</text>
</g>
<!-- A3&#45;&gt;A6 -->
<g id="edge16" class="edge">
<title>A3&#45;&gt;A6</title>
<path fill="none" stroke="#000000" d="M298.1982,-260.3286C335.1026,-253.7781 377.3992,-244.4365 393.0113,-234 401.0302,-228.6395 407.7603,-220.7003 413.0609,-212.8151"/>
<polygon fill="#000000" stroke="#000000" points="418.4307,-204.0756 417.0297,-214.9517 415.8131,-208.3358 413.1956,-212.5959 413.1956,-212.5959 413.1956,-212.5959 415.8131,-208.3358 409.3615,-210.2401 418.4307,-204.0756 418.4307,-204.0756"/>
<text text-anchor="middle" x="441.4033" y="-225" font-family="Helvetica,sans-Serif" font-size="10.00" fill="#000000">[aceitarMinijogo]</text>
</g>
<!-- A4&#45;&gt;A1 -->
<g id="edge6" class="edge">
<title>A4&#45;&gt;A1</title>
<path fill="none" stroke="#000000" d="M350.7553,-105.8026C317.2979,-110.0494 272.9524,-119.0284 238.0113,-138 174.452,-172.51 149.8733,-185.3099 121.8883,-252 91.3426,-324.7924 150.9829,-358.7331 217.0113,-402 233.4139,-412.7482 253.1015,-420.3627 271.8681,-425.7272"/>
<polygon fill="#000000" stroke="#000000" points="281.5755,-428.3321 270.7509,-430.0866 276.7463,-427.0362 271.9172,-425.7403 271.9172,-425.7403 271.9172,-425.7403 276.7463,-427.0362 273.0835,-421.3941 281.5755,-428.3321 281.5755,-428.3321"/>
<text text-anchor="middle" x="142.5728" y="-267" font-family="Helvetica,sans-Serif" font-size="10.00" fill="#000000">[avancar]</text>
</g>
<!-- A4&#45;&gt;A2 -->
<g id="edge8" class="edge">
<title>A4&#45;&gt;A2</title>
<path fill="none" stroke="#000000" d="M449.1658,-108.1644C519.1263,-117.848 642.6538,-138.6005 676.0113,-168 685.6703,-176.5129 743.0473,-250.8709 716.0113,-288 690.4462,-323.1091 665.4019,-308.5524 623.0113,-318 550.6154,-334.1348 466.0743,-343.7119 408.3728,-348.8822"/>
<polygon fill="#000000" stroke="#000000" points="398.2781,-349.7663 407.8473,-344.4109 403.259,-349.33 408.2399,-348.8937 408.2399,-348.8937 408.2399,-348.8937 403.259,-349.33 408.6326,-353.3766 398.2781,-349.7663 398.2781,-349.7663"/>
<text text-anchor="middle" x="742.6808" y="-225" font-family="Helvetica,sans-Serif" font-size="10.00" fill="#000000">[iniciarJogo]</text>
</g>
<!-- A4&#45;&gt;A3 -->
<g id="edge9" class="edge">
<title>A4&#45;&gt;A3</title>
<path fill="none" stroke="#000000" d="M367.0613,-120.2197C347.4453,-132.1212 322.9032,-148.9574 304.6543,-168 280.6563,-193.0417 282.9363,-205.6101 263.0113,-234 260.7228,-237.2607 258.2523,-240.6303 255.7598,-243.94"/>
<polygon fill="#000000" stroke="#000000" points="249.6096,-251.9475 252.132,-241.2757 252.6552,-247.9821 255.7009,-244.0167 255.7009,-244.0167 255.7009,-244.0167 252.6552,-247.9821 259.2697,-246.7578 249.6096,-251.9475 249.6096,-251.9475"/>
<text text-anchor="middle" x="339.1898" y="-183" font-family="Helvetica,sans-Serif" font-size="10.00" fill="#000000">[continuarJogo]</text>
</g>
<!-- A4&#45;&gt;A4 -->
<g id="edge5" class="edge">
<title>A4&#45;&gt;A4</title>
<path fill="none" stroke="#000000" d="M449.3075,-105.8104C459.7586,-105.4234 467.3058,-104.1533 467.3058,-102 467.3058,-100.6542 464.3577,-99.6533 459.595,-98.9975"/>
<polygon fill="#000000" stroke="#000000" points="449.3075,-98.1896 459.6291,-94.4864 454.2921,-98.5811 459.2768,-98.9726 459.2768,-98.9726 459.2768,-98.9726 454.2921,-98.5811 458.9244,-103.4588 449.3075,-98.1896 449.3075,-98.1896"/>
<text text-anchor="middle" x="487.8673" y="-99" font-family="Helvetica,sans-Serif" font-size="10.00" fill="#000000">[avancar]</text>
</g>
<!-- A4&#45;&gt;A4 -->
<g id="edge10" class="edge">
<title>A4&#45;&gt;A4</title>
<path fill="none" stroke="#000000" d="M449.3738,-109.5115C478.9171,-110.8818 508.4288,-108.3779 508.4288,-102 508.4288,-96.3446 485.2246,-93.7352 459.3698,-94.172"/>
<polygon fill="#000000" stroke="#000000" points="449.3738,-94.4885 459.2263,-89.6742 454.3713,-94.3302 459.3688,-94.1719 459.3688,-94.1719 459.3688,-94.1719 454.3713,-94.3302 459.5113,-98.6696 449.3738,-94.4885 449.3738,-94.4885"/>
<text text-anchor="middle" x="533.7093" y="-99" font-family="Helvetica,sans-Serif" font-size="10.00" fill="#000000">[verReplay]</text>
</g>
<!-- A4&#45;&gt;A5 -->
<g id="edge7" class="edge">
<title>A4&#45;&gt;A5</title>
<path fill="none" stroke="#000000" d="M381.3222,-83.882C370.4903,-74.0884 356.2179,-62.3303 342.0113,-54 326.9222,-45.1522 309.2581,-37.681 293.4017,-31.8779"/>
<polygon fill="#000000" stroke="#000000" points="283.8016,-28.4828 294.7298,-27.5745 288.5155,-30.1499 293.2294,-31.817 293.2294,-31.817 293.2294,-31.817 288.5155,-30.1499 291.729,-36.0595 283.8016,-28.4828 283.8016,-28.4828"/>
<text text-anchor="middle" x="380.5728" y="-57" font-family="Helvetica,sans-Serif" font-size="10.00" fill="#000000">[avancar]</text>
</g>
<!-- A5&#45;&gt;A1 -->
<g id="edge28" class="edge">
<title>A5&#45;&gt;A1</title>
<path fill="none" stroke="#000000" d="M283.9458,-18.9259C416.6473,-22.8983 882.0113,-41.166 882.0113,-102 882.0113,-354 882.0113,-354 882.0113,-354 882.0113,-401.3953 554.1823,-425.8774 408.4435,-434.4193"/>
<polygon fill="#000000" stroke="#000000" points="398.2721,-435.0069 407.9958,-429.9376 403.2637,-434.7185 408.2554,-434.4301 408.2554,-434.4301 408.2554,-434.4301 403.2637,-434.7185 408.515,-438.9226 398.2721,-435.0069 398.2721,-435.0069"/>
<text text-anchor="middle" x="902.5728" y="-225" font-family="Helvetica,sans-Serif" font-size="10.00" fill="#000000">[avancar]</text>
</g>
<!-- A5&#45;&gt;A2 -->
<g id="edge29" class="edge">
<title>A5&#45;&gt;A2</title>
<path fill="none" stroke="#000000" d="M214.219,-22.0134C182.8591,-26.6203 136.114,-35.9896 99.0113,-54 30.2072,-87.399 -27.7659,-140.3722 14.6723,-204 45.4812,-250.1919 84.5526,-220.1192 130.0113,-252 147.7818,-264.4627 145.519,-275.1496 163.0113,-288 188.3283,-306.5987 197.7613,-306.5412 227.0113,-318 241.4008,-323.6371 257.0663,-329.0634 272.0227,-333.9179"/>
<polygon fill="#000000" stroke="#000000" points="281.7283,-337.0219 270.8327,-338.2618 276.9659,-335.4987 272.2035,-333.9756 272.2035,-333.9756 272.2035,-333.9756 276.9659,-335.4987 273.5743,-329.6895 281.7283,-337.0219 281.7283,-337.0219"/>
<text text-anchor="middle" x="41.6808" y="-183" font-family="Helvetica,sans-Serif" font-size="10.00" fill="#000000">[iniciarJogo]</text>
</g>
<!-- A5&#45;&gt;A3 -->
<g id="edge30" class="edge">
<title>A5&#45;&gt;A3</title>
<path fill="none" stroke="#000000" d="M222.1409,-36.1315C193.9801,-56.929 151.4122,-93.9034 133.6543,-138 116.368,-180.9255 160.3831,-221.8062 195.7621,-246.3993"/>
<polygon fill="#000000" stroke="#000000" points="204.0684,-251.9927 193.2602,-250.1397 199.9211,-249.1999 195.7737,-246.4071 195.7737,-246.4071 195.7737,-246.4071 199.9211,-249.1999 198.2873,-242.6745 204.0684,-251.9927 204.0684,-251.9927"/>
<text text-anchor="middle" x="168.1898" y="-141" font-family="Helvetica,sans-Serif" font-size="10.00" fill="#000000">[continuarJogo]</text>
</g>
<!-- A5&#45;&gt;A4 -->
<g id="edge31" class="edge">
<title>A5&#45;&gt;A4</title>
<path fill="none" stroke="#000000" d="M259.7867,-36.1914C266.5817,-46.2552 276.1915,-58.2552 287.4503,-66 303.355,-76.9407 322.7738,-84.7022 340.975,-90.1435"/>
<polygon fill="#000000" stroke="#000000" points="350.6432,-92.8575 339.7991,-94.4873 345.8292,-91.5061 341.0153,-90.1548 341.0153,-90.1548 341.0153,-90.1548 345.8292,-91.5061 342.2315,-85.8222 350.6432,-92.8575 350.6432,-92.8575"/>
<text text-anchor="middle" x="313.2918" y="-57" font-family="Helvetica,sans-Serif" font-size="10.00" fill="#000000">[verReplay]</text>
</g>
<!-- A6&#45;&gt;A2 -->
<g id="edge25" class="edge">
<title>A6&#45;&gt;A2</title>
<path fill="none" stroke="#000000" d="M472.5338,-190.2066C551.3077,-199.237 699.9632,-225.0159 649.0113,-288 619.3582,-324.6556 490.2057,-341.8426 408.5469,-349.1791"/>
<polygon fill="#000000" stroke="#000000" points="398.3414,-350.0671 407.9136,-344.7171 403.3226,-349.6336 408.3037,-349.2001 408.3037,-349.2001 408.3037,-349.2001 403.3226,-349.6336 408.6939,-353.6832 398.3414,-350.0671 398.3414,-350.0671"/>
<text text-anchor="middle" x="685.6808" y="-267" font-family="Helvetica,sans-Serif" font-size="10.00" fill="#000000">[iniciarJogo]</text>
</g>
<!-- A6&#45;&gt;A3 -->
<g id="edge23" class="edge">
<title>A6&#45;&gt;A3</title>
<path fill="none" stroke="#000000" d="M468.0923,-204.0596C481.7609,-212.546 491.3792,-223.1677 482.0113,-234 470.6701,-247.114 376.9823,-257.9005 308.3355,-264.1447"/>
<polygon fill="#000000" stroke="#000000" points="297.9761,-265.0701 307.536,-259.6981 302.9563,-264.6252 307.9365,-264.1802 307.9365,-264.1802 307.9365,-264.1802 302.9563,-264.6252 308.3369,-268.6624 297.9761,-265.0701 297.9761,-265.0701"/>
<text text-anchor="middle" x="541.1308" y="-225" font-family="Helvetica,sans-Serif" font-size="10.00" fill="#000000">[enviarRespostaMinijogo]</text>
</g>
<!-- A6&#45;&gt;A3 -->
<g id="edge26" class="edge">
<title>A6&#45;&gt;A3</title>
<path fill="none" stroke="#000000" d="M381.704,-200.1166C358.0677,-207.7233 331.8052,-216.6253 320.6543,-222 311.7778,-226.2785 310.5009,-228.9975 302.0113,-234 294.6521,-238.3365 286.7341,-242.78 279.0096,-246.9996"/>
<polygon fill="#000000" stroke="#000000" points="270.0756,-251.8304 276.7316,-243.1156 274.4738,-249.4522 278.872,-247.0739 278.872,-247.0739 278.872,-247.0739 274.4738,-249.4522 281.0124,-251.0323 270.0756,-251.8304 270.0756,-251.8304"/>
<text text-anchor="middle" x="355.1898" y="-225" font-family="Helvetica,sans-Serif" font-size="10.00" fill="#000000">[continuarJogo]</text>
</g>
<!-- A6&#45;&gt;A4 -->
<g id="edge27" class="edge">
<title>A6&#45;&gt;A4</title>
<path fill="none" stroke="#000000" d="M421.1527,-167.7733C417.5792,-156.6557 412.9406,-142.2244 408.9191,-129.7132"/>
<polygon fill="#000000" stroke="#000000" points="405.8585,-120.1912 413.2028,-128.3344 407.3885,-124.9513 408.9186,-129.7115 408.9186,-129.7115 408.9186,-129.7115 407.3885,-124.9513 404.6345,-131.0885 405.8585,-120.1912 405.8585,-120.1912"/>
<text text-anchor="middle" x="440.2918" y="-141" font-family="Helvetica,sans-Serif" font-size="10.00" fill="#000000">[verReplay]</text>
</g>
<!-- A6&#45;&gt;A6 -->
<g id="edge24" class="edge">
<title>A6&#45;&gt;A6</title>
<path fill="none" stroke="#000000" d="M472.3162,-193.7015C482.747,-193.0379 490.4093,-190.4707 490.4093,-186 490.4093,-183.136 487.2647,-181.0531 482.2621,-179.7515"/>
<polygon fill="#000000" stroke="#000000" points="472.3162,-178.2985 482.8617,-175.2914 477.2637,-179.0213 482.2111,-179.7441 482.2111,-179.7441 482.2111,-179.7441 477.2637,-179.0213 481.5606,-184.1969 472.3162,-178.2985 472.3162,-178.2985"/>
<text text-anchor="middle" x="546.5288" y="-183" font-family="Helvetica,sans-Serif" font-size="10.00" fill="#000000">[enviarRespostaMinijogo]</text>
</g>
</g>
</svg>
