<?xml version="1.0" encoding="UTF-8" standalone="no"?>
<!DOCTYPE svg PUBLIC "-//W3C//DTD SVG 1.1//EN"
 "http://www.w3.org/Graphics/SVG/1.1/DTD/svg11.dtd">
<!-- Generated by graphviz version 2.40.1 (20161225.0304)
 -->
<!-- Title: G Pages: 1 -->
<svg width="931pt" height="534pt"
 viewBox="0.00 0.00 931.16 534.00" xmlns="http://www.w3.org/2000/svg" xmlns:xlink="http://www.w3.org/1999/xlink">
<g id="graph0" class="graph" transform="scale(1 1) rotate(0) translate(4 530)">
<title>G</title>
<polygon fill="#ffffff" stroke="transparent" points="-4,4 -4,-530 927.1564,-530 927.1564,4 -4,4"/>
<!-- A0 -->
<g id="node1" class="node">
<title>A0</title>
<ellipse fill="none" stroke="#000000" cx="340.0334" cy="-515" rx="11" ry="11"/>
</g>
<!-- A1 -->
<g id="node2" class="node">
<title>A1</title>
<path fill="none" stroke="#000000" d="M386.3979,-456C386.3979,-456 293.6688,-456 293.6688,-456 287.6688,-456 281.6688,-450 281.6688,-444 281.6688,-444 281.6688,-432 281.6688,-432 281.6688,-426 287.6688,-420 293.6688,-420 293.6688,-420 386.3979,-420 386.3979,-420 392.3979,-420 398.3979,-426 398.3979,-432 398.3979,-432 398.3979,-444 398.3979,-444 398.3979,-450 392.3979,-456 386.3979,-456"/>
<text text-anchor="middle" x="340.0334" y="-435" font-family="Helvetica,sans-Serif" font-size="10.00" fill="#000000">{pedeDecisaoInicio}</text>
</g>
<!-- A0&#45;&gt;A1 -->
<g id="edge1" class="edge">
<title>A0&#45;&gt;A1</title>
<path fill="none" stroke="#000000" d="M340.0334,-503.9678C340.0334,-494.124 340.0334,-479.2813 340.0334,-466.1664"/>
<polygon fill="#000000" stroke="#000000" points="340.0334,-456.1474 344.5335,-466.1473 340.0334,-461.1474 340.0335,-466.1474 340.0335,-466.1474 340.0335,-466.1474 340.0334,-461.1474 335.5335,-466.1474 340.0334,-456.1474 340.0334,-456.1474"/>
<text text-anchor="middle" x="425.6129" y="-477" font-family="Helvetica,sans-Serif" font-size="10.00" fill="#000000">[new QuatroEmLinhaMaquinaEstados]</text>
</g>
<!-- A2 -->
<g id="node3" class="node">
<title>A2</title>
<path fill="none" stroke="#000000" d="M386.407,-372C386.407,-372 293.6598,-372 293.6598,-372 287.6598,-372 281.6598,-366 281.6598,-360 281.6598,-360 281.6598,-348 281.6598,-348 281.6598,-342 287.6598,-336 293.6598,-336 293.6598,-336 386.407,-336 386.407,-336 392.407,-336 398.407,-342 398.407,-348 398.407,-348 398.407,-360 398.407,-360 398.407,-366 392.407,-372 386.407,-372"/>
<text text-anchor="middle" x="340.0334" y="-351" font-family="Helvetica,sans-Serif" font-size="10.00" fill="#000000">{pedeConfiguracao}</text>
</g>
<!-- A1&#45;&gt;A2 -->
<g id="edge2" class="edge">
<title>A1&#45;&gt;A2</title>
<path fill="none" stroke="#000000" d="M340.0334,-419.7733C340.0334,-408.8758 340.0334,-394.7946 340.0334,-382.4587"/>
<polygon fill="#000000" stroke="#000000" points="340.0334,-372.1912 344.5334,-382.1911 340.0334,-377.1912 340.0334,-382.1912 340.0334,-382.1912 340.0334,-382.1912 340.0334,-377.1912 335.5334,-382.1912 340.0334,-372.1912 340.0334,-372.1912"/>
<text text-anchor="middle" x="366.7029" y="-393" font-family="Helvetica,sans-Serif" font-size="10.00" fill="#000000">[iniciarJogo]</text>
</g>
<!-- A3 -->
<g id="node4" class="node">
<title>A3</title>
<path fill="none" stroke="#000000" d="M285.8575,-288C285.8575,-288 184.2092,-288 184.2092,-288 178.2092,-288 172.2092,-282 172.2092,-276 172.2092,-276 172.2092,-264 172.2092,-264 172.2092,-258 178.2092,-252 184.2092,-252 184.2092,-252 285.8575,-252 285.8575,-252 291.8575,-252 297.8575,-258 297.8575,-264 297.8575,-264 297.8575,-276 297.8575,-276 297.8575,-282 291.8575,-288 285.8575,-288"/>
<text text-anchor="middle" x="235.0334" y="-267" font-family="Helvetica,sans-Serif" font-size="10.00" fill="#000000">{pedeDecisaoJogada}</text>
</g>
<!-- A1&#45;&gt;A3 -->
<g id="edge3" class="edge">
<title>A1&#45;&gt;A3</title>
<path fill="none" stroke="#000000" d="M281.8427,-425.0319C253.3723,-415.4387 221.6493,-399.1592 204.6764,-372 190.197,-348.831 202.5743,-318.3948 215.6127,-296.8176"/>
<polygon fill="#000000" stroke="#000000" points="221.1647,-288.1597 219.5547,-299.0067 218.4657,-292.3686 215.7666,-296.5776 215.7666,-296.5776 215.7666,-296.5776 218.4657,-292.3686 211.9786,-294.1484 221.1647,-288.1597 221.1647,-288.1597"/>
<text text-anchor="middle" x="238.2119" y="-351" font-family="Helvetica,sans-Serif" font-size="10.00" fill="#000000">[continuarJogo]</text>
</g>
<!-- A4 -->
<g id="node5" class="node">
<title>A4</title>
<path fill="none" stroke="#000000" d="M437.1232,-120C437.1232,-120 362.9435,-120 362.9435,-120 356.9435,-120 350.9435,-114 350.9435,-108 350.9435,-108 350.9435,-96 350.9435,-96 350.9435,-90 356.9435,-84 362.9435,-84 362.9435,-84 437.1232,-84 437.1232,-84 443.1232,-84 449.1232,-90 449.1232,-96 449.1232,-96 449.1232,-108 449.1232,-108 449.1232,-114 443.1232,-120 437.1232,-120"/>
<text text-anchor="middle" x="400.0334" y="-99" font-family="Helvetica,sans-Serif" font-size="10.00" fill="#000000">{assisteJogada}</text>
</g>
<!-- A1&#45;&gt;A4 -->
<g id="edge4" class="edge">
<title>A1&#45;&gt;A4</title>
<path fill="none" stroke="#000000" d="M398.6726,-433.406C523.2594,-422.8569 803.0334,-394.6428 803.0334,-354 803.0334,-354 803.0334,-354 803.0334,-186 803.0334,-151.3473 571.7291,-120.988 459.5922,-108.3059"/>
<polygon fill="#000000" stroke="#000000" points="449.4491,-107.1702 459.8877,-103.8109 454.418,-107.7266 459.387,-108.283 459.387,-108.283 459.387,-108.283 454.418,-107.7266 458.8862,-112.755 449.4491,-107.1702 449.4491,-107.1702"/>
<text text-anchor="middle" x="828.3139" y="-267" font-family="Helvetica,sans-Serif" font-size="10.00" fill="#000000">[verReplay]</text>
</g>
<!-- A2&#45;&gt;A2 -->
<g id="edge11" class="edge">
<title>A2&#45;&gt;A2</title>
<path fill="none" stroke="#000000" d="M398.4882,-361.4131C408.9278,-360.4495 416.2199,-357.9785 416.2199,-354 416.2199,-351.5134 413.3714,-349.6157 408.6863,-348.3069"/>
<polygon fill="#000000" stroke="#000000" points="398.4882,-346.5869 409.0973,-343.8127 403.4186,-347.4185 408.3489,-348.25 408.3489,-348.25 408.3489,-348.25 403.4186,-347.4185 407.6005,-352.6874 398.4882,-346.5869 398.4882,-346.5869"/>
<text text-anchor="middle" x="457.3419" y="-351" font-family="Helvetica,sans-Serif" font-size="10.00" fill="#000000">[adicionarJogador]</text>
</g>
<!-- A2&#45;&gt;A3 -->
<g id="edge12" class="edge">
<title>A2&#45;&gt;A3</title>
<path fill="none" stroke="#000000" d="M281.5923,-340.1255C261.1764,-334.0165 241.8276,-326.3338 235.7894,-318 231.8101,-312.508 230.2843,-305.6574 230.0541,-298.867"/>
<polygon fill="#000000" stroke="#000000" points="230.5927,-288.4496 234.5703,-298.6686 230.3345,-293.4429 230.0763,-298.4363 230.0763,-298.4363 230.0763,-298.4363 230.3345,-293.4429 225.5823,-298.2039 230.5927,-288.4496 230.5927,-288.4496"/>
<text text-anchor="middle" x="276.1554" y="-309" font-family="Helvetica,sans-Serif" font-size="10.00" fill="#000000">[adicionarJogador]</text>
</g>
<!-- A3&#45;&gt;A2 -->
<g id="edge19" class="edge">
<title>A3&#45;&gt;A2</title>
<path fill="none" stroke="#000000" d="M292.0906,-288.0669C301.5248,-292.8386 310.6283,-298.7454 318.0334,-306 323.7057,-311.5571 328.0582,-318.8495 331.3347,-326.0664"/>
<polygon fill="#000000" stroke="#000000" points="335.1584,-335.6908 327.2841,-328.0589 333.3123,-331.0441 331.4661,-326.3974 331.4661,-326.3974 331.4661,-326.3974 333.3123,-331.0441 335.6482,-324.7359 335.1584,-335.6908 335.1584,-335.6908"/>
<text text-anchor="middle" x="352.7029" y="-309" font-family="Helvetica,sans-Serif" font-size="10.00" fill="#000000">[iniciarJogo]</text>
</g>
<!-- A3&#45;&gt;A3 -->
<g id="edge13" class="edge">
<title>A3&#45;&gt;A3</title>
<path fill="none" stroke="#000000" d="M298.1328,-271.8298C308.6726,-271.5738 315.9454,-270.9639 315.9454,-270 315.9454,-269.3976 313.1044,-268.9334 308.4006,-268.6075"/>
<polygon fill="#000000" stroke="#000000" points="298.1328,-268.1702 308.3153,-264.0999 303.1283,-268.383 308.1238,-268.5958 308.1238,-268.5958 308.1238,-268.5958 303.1283,-268.383 307.9322,-273.0917 298.1328,-268.1702 298.1328,-268.1702"/>
<text text-anchor="middle" x="342.0599" y="-267" font-family="Helvetica,sans-Serif" font-size="10.00" fill="#000000">[jogarFicha]</text>
</g>
<!-- A3&#45;&gt;A3 -->
<g id="edge16" class="edge">
<title>A3&#45;&gt;A3</title>
<path fill="none" stroke="#000000" d="M297.9689,-273.8104C333.3235,-274.3668 368.1744,-273.0967 368.1744,-270 368.1744,-267.2057 339.798,-265.8987 308.2803,-266.0789"/>
<polygon fill="#000000" stroke="#000000" points="297.9689,-266.1896 307.9199,-261.5824 302.9686,-266.1359 307.9683,-266.0821 307.9683,-266.0821 307.9683,-266.0821 302.9686,-266.1359 308.0167,-270.5819 297.9689,-266.1896 297.9689,-266.1896"/>
<text text-anchor="middle" x="398.4689" y="-267" font-family="Helvetica,sans-Serif" font-size="10.00" fill="#000000">[undoJogada]</text>
</g>
<!-- A3&#45;&gt;A3 -->
<g id="edge17" class="edge">
<title>A3&#45;&gt;A3</title>
<path fill="none" stroke="#000000" d="M298.2309,-275.1099C356.4443,-277.0866 428.7634,-275.3833 428.7634,-270 428.7634,-264.9216 364.4046,-263.1181 308.2427,-264.5896"/>
<polygon fill="#000000" stroke="#000000" points="298.2309,-264.8901 308.0914,-260.092 303.2286,-264.74 308.2264,-264.59 308.2264,-264.59 308.2264,-264.59 303.2286,-264.74 308.3614,-269.088 298.2309,-264.8901 298.2309,-264.8901"/>
<text text-anchor="middle" x="473.7699" y="-267" font-family="Helvetica,sans-Serif" font-size="10.00" fill="#000000">[jogarFichaEspecial]</text>
</g>
<!-- A3&#45;&gt;A3 -->
<g id="edge20" class="edge">
<title>A3&#45;&gt;A3</title>
<path fill="none" stroke="#000000" d="M298.004,-275.8908C384.1169,-279.8489 518.7764,-277.8853 518.7764,-270 518.7764,-262.4151 394.1789,-260.3093 308.0442,-263.6827"/>
<polygon fill="#000000" stroke="#000000" points="298.004,-264.1092 307.804,-259.1887 302.9995,-263.8969 307.995,-263.6847 307.995,-263.6847 307.995,-263.6847 302.9995,-263.8969 308.186,-268.1806 298.004,-264.1092 298.004,-264.1092"/>
<text text-anchor="middle" x="552.9549" y="-267" font-family="Helvetica,sans-Serif" font-size="10.00" fill="#000000">[continuarJogo]</text>
</g>
<!-- A3&#45;&gt;A4 -->
<g id="edge21" class="edge">
<title>A3&#45;&gt;A4</title>
<path fill="none" stroke="#000000" d="M298.15,-267.4972C396.6046,-263.0461 577.9212,-252.4445 601.0334,-234 624.2224,-215.4942 628.6036,-191.9057 611.0334,-168 592.8976,-143.325 515.3926,-123.7682 459.5758,-112.5358"/>
<polygon fill="#000000" stroke="#000000" points="449.4252,-110.536 460.1065,-108.054 454.3309,-111.5026 459.2366,-112.4691 459.2366,-112.4691 459.2366,-112.4691 454.3309,-111.5026 458.3667,-116.8842 449.4252,-110.536 449.4252,-110.536"/>
<text text-anchor="middle" x="646.3139" y="-183" font-family="Helvetica,sans-Serif" font-size="10.00" fill="#000000">[verReplay]</text>
</g>
<!-- A5 -->
<g id="node6" class="node">
<title>A5</title>
<path fill="none" stroke="#000000" d="M271.7161,-36C271.7161,-36 226.3506,-36 226.3506,-36 220.3506,-36 214.3506,-30 214.3506,-24 214.3506,-24 214.3506,-12 214.3506,-12 214.3506,-6 220.3506,0 226.3506,0 226.3506,0 271.7161,0 271.7161,0 277.7161,0 283.7161,-6 283.7161,-12 283.7161,-12 283.7161,-24 283.7161,-24 283.7161,-30 277.7161,-36 271.7161,-36"/>
<text text-anchor="middle" x="249.0334" y="-15" font-family="Helvetica,sans-Serif" font-size="10.00" fill="#000000">{fimJogo}</text>
</g>
<!-- A3&#45;&gt;A5 -->
<g id="edge14" class="edge">
<title>A3&#45;&gt;A5</title>
<path fill="none" stroke="#000000" d="M172.1867,-254.3166C149.9492,-247.9709 128.1831,-240.5991 119.0334,-234 116.7047,-232.3205 59.683,-152.7334 58.8044,-150 57.1722,-144.9226 57.1722,-143.0774 58.8044,-138 72.8631,-94.2658 81.3656,-80.2958 119.0334,-54 144.1228,-36.4851 177.465,-27.4712 204.1006,-22.8432"/>
<polygon fill="#000000" stroke="#000000" points="214.3181,-21.2224 205.1467,-27.2336 209.3799,-22.0058 204.4416,-22.7891 204.4416,-22.7891 204.4416,-22.7891 209.3799,-22.0058 203.7366,-18.3447 214.3181,-21.2224 214.3181,-21.2224"/>
<text text-anchor="middle" x="85.1479" y="-141" font-family="Helvetica,sans-Serif" font-size="10.00" fill="#000000">[jogarFicha]</text>
</g>
<!-- A3&#45;&gt;A5 -->
<g id="edge18" class="edge">
<title>A3&#45;&gt;A5</title>
<path fill="none" stroke="#000000" d="M236.0402,-251.8768C238.4459,-208.5739 244.5433,-98.8207 247.4479,-46.5374"/>
<polygon fill="#000000" stroke="#000000" points="248.0168,-36.2976 251.9551,-46.5319 247.7394,-41.2899 247.462,-46.2822 247.462,-46.2822 247.462,-46.2822 247.7394,-41.2899 242.969,-46.0326 248.0168,-36.2976 248.0168,-36.2976"/>
<text text-anchor="middle" x="260.6444" y="-141" font-family="Helvetica,sans-Serif" font-size="10.00" fill="#000000">[desistir]</text>
</g>
<!-- A6 -->
<g id="node7" class="node">
<title>A6</title>
<path fill="none" stroke="#000000" d="M460.3296,-204C460.3296,-204 393.7371,-204 393.7371,-204 387.7371,-204 381.7371,-198 381.7371,-192 381.7371,-192 381.7371,-180 381.7371,-180 381.7371,-174 387.7371,-168 393.7371,-168 393.7371,-168 460.3296,-168 460.3296,-168 466.3296,-168 472.3296,-174 472.3296,-180 472.3296,-180 472.3296,-192 472.3296,-192 472.3296,-198 466.3296,-204 460.3296,-204"/>
<text text-anchor="middle" x="427.0334" y="-183" font-family="Helvetica,sans-Serif" font-size="10.00" fill="#000000">{jogaMinijogo}</text>
</g>
<!-- A3&#45;&gt;A6 -->
<g id="edge15" class="edge">
<title>A3&#45;&gt;A6</title>
<path fill="none" stroke="#000000" d="M298.2203,-260.3286C335.1246,-253.7781 377.4213,-244.4365 393.0334,-234 401.0523,-228.6395 407.7823,-220.7003 413.083,-212.8151"/>
<polygon fill="#000000" stroke="#000000" points="418.4527,-204.0756 417.0517,-214.9517 415.8352,-208.3358 413.2176,-212.5959 413.2176,-212.5959 413.2176,-212.5959 415.8352,-208.3358 409.3835,-210.2401 418.4527,-204.0756 418.4527,-204.0756"/>
<text text-anchor="middle" x="441.4254" y="-225" font-family="Helvetica,sans-Serif" font-size="10.00" fill="#000000">[aceitarMinijogo]</text>
</g>
<!-- A4&#45;&gt;A1 -->
<g id="edge6" class="edge">
<title>A4&#45;&gt;A1</title>
<path fill="none" stroke="#000000" d="M350.814,-105.6522C317.0969,-109.8327 272.2784,-118.7944 237.0334,-138 173.8042,-172.4547 149.6293,-185.5417 121.9104,-252 91.6133,-324.6394 150.2684,-358.7637 216.0334,-402 232.7019,-412.9585 252.7655,-420.6485 271.8496,-426.018"/>
<polygon fill="#000000" stroke="#000000" points="281.7169,-428.6195 270.9001,-430.4214 276.8821,-427.3448 272.0473,-426.0701 272.0473,-426.0701 272.0473,-426.0701 276.8821,-427.3448 273.1946,-421.7188 281.7169,-428.6195 281.7169,-428.6195"/>
<text text-anchor="middle" x="141.5949" y="-267" font-family="Helvetica,sans-Serif" font-size="10.00" fill="#000000">[avancar]</text>
</g>
<!-- A4&#45;&gt;A2 -->
<g id="edge8" class="edge">
<title>A4&#45;&gt;A2</title>
<path fill="none" stroke="#000000" d="M449.1878,-108.1644C519.1484,-117.848 642.6759,-138.6005 676.0334,-168 685.6923,-176.5129 743.0693,-250.8709 716.0334,-288 690.4683,-323.1091 665.424,-308.5524 623.0334,-318 550.6374,-334.1348 466.0963,-343.7119 408.3948,-348.8822"/>
<polygon fill="#000000" stroke="#000000" points="398.3001,-349.7663 407.8693,-344.4109 403.281,-349.33 408.262,-348.8937 408.262,-348.8937 408.262,-348.8937 403.281,-349.33 408.6546,-353.3766 398.3001,-349.7663 398.3001,-349.7663"/>
<text text-anchor="middle" x="742.7029" y="-225" font-family="Helvetica,sans-Serif" font-size="10.00" fill="#000000">[iniciarJogo]</text>
</g>
<!-- A4&#45;&gt;A3 -->
<g id="edge9" class="edge">
<title>A4&#45;&gt;A3</title>
<path fill="none" stroke="#000000" d="M367.0834,-120.2197C347.4674,-132.1212 322.9253,-148.9574 304.6764,-168 280.6783,-193.0417 282.9584,-205.6101 263.0334,-234 260.7448,-237.2607 258.2744,-240.6303 255.7818,-243.94"/>
<polygon fill="#000000" stroke="#000000" points="249.6317,-251.9475 252.1541,-241.2757 252.6773,-247.9821 255.7229,-244.0167 255.7229,-244.0167 255.7229,-244.0167 252.6773,-247.9821 259.2918,-246.7578 249.6317,-251.9475 249.6317,-251.9475"/>
<text text-anchor="middle" x="338.2119" y="-183" font-family="Helvetica,sans-Serif" font-size="10.00" fill="#000000">[continuarJogo]</text>
</g>
<!-- A4&#45;&gt;A4 -->
<g id="edge5" class="edge">
<title>A4&#45;&gt;A4</title>
<path fill="none" stroke="#000000" d="M449.3295,-105.8104C459.7806,-105.4234 467.3279,-104.1533 467.3279,-102 467.3279,-100.6542 464.3797,-99.6533 459.6171,-98.9975"/>
<polygon fill="#000000" stroke="#000000" points="449.3295,-98.1896 459.6512,-94.4864 454.3142,-98.5811 459.2988,-98.9726 459.2988,-98.9726 459.2988,-98.9726 454.3142,-98.5811 458.9465,-103.4588 449.3295,-98.1896 449.3295,-98.1896"/>
<text text-anchor="middle" x="487.8894" y="-99" font-family="Helvetica,sans-Serif" font-size="10.00" fill="#000000">[avancar]</text>
</g>
<!-- A4&#45;&gt;A4 -->
<g id="edge10" class="edge">
<title>A4&#45;&gt;A4</title>
<path fill="none" stroke="#000000" d="M449.3959,-109.5115C478.9391,-110.8818 508.4509,-108.3779 508.4509,-102 508.4509,-96.3446 485.2467,-93.7352 459.3919,-94.172"/>
<polygon fill="#000000" stroke="#000000" points="449.3959,-94.4885 459.2484,-89.6742 454.3933,-94.3302 459.3908,-94.1719 459.3908,-94.1719 459.3908,-94.1719 454.3933,-94.3302 459.5333,-98.6696 449.3959,-94.4885 449.3959,-94.4885"/>
<text text-anchor="middle" x="533.7314" y="-99" font-family="Helvetica,sans-Serif" font-size="10.00" fill="#000000">[verReplay]</text>
</g>
<!-- A4&#45;&gt;A5 -->
<g id="edge7" class="edge">
<title>A4&#45;&gt;A5</title>
<path fill="none" stroke="#000000" d="M381.3443,-83.882C370.5124,-74.0884 356.24,-62.3303 342.0334,-54 326.9442,-45.1522 309.2802,-37.681 293.4238,-31.8779"/>
<polygon fill="#000000" stroke="#000000" points="283.8237,-28.4828 294.7519,-27.5745 288.5376,-30.1499 293.2515,-31.817 293.2515,-31.817 293.2515,-31.817 288.5376,-30.1499 291.7511,-36.0595 283.8237,-28.4828 283.8237,-28.4828"/>
<text text-anchor="middle" x="379.5949" y="-57" font-family="Helvetica,sans-Serif" font-size="10.00" fill="#000000">[avancar]</text>
</g>
<!-- A5&#45;&gt;A1 -->
<g id="edge27" class="edge">
<title>A5&#45;&gt;A1</title>
<path fill="none" stroke="#000000" d="M283.9678,-18.9259C416.6693,-22.8983 882.0334,-41.166 882.0334,-102 882.0334,-354 882.0334,-354 882.0334,-354 882.0334,-401.3953 554.2043,-425.8774 408.4656,-434.4193"/>
<polygon fill="#000000" stroke="#000000" points="398.2941,-435.0069 408.0179,-429.9376 403.2858,-434.7185 408.2775,-434.4301 408.2775,-434.4301 408.2775,-434.4301 403.2858,-434.7185 408.537,-438.9226 398.2941,-435.0069 398.2941,-435.0069"/>
<text text-anchor="middle" x="902.5949" y="-225" font-family="Helvetica,sans-Serif" font-size="10.00" fill="#000000">[avancar]</text>
</g>
<!-- A5&#45;&gt;A2 -->
<g id="edge28" class="edge">
<title>A5&#45;&gt;A2</title>
<path fill="none" stroke="#000000" d="M214.2601,-21.8135C182.6517,-26.2986 135.386,-35.602 98.0334,-54 29.6171,-87.6984 -27.6235,-140.5526 14.6944,-204 45.5032,-250.1919 84.5746,-220.1192 130.0334,-252 147.8039,-264.4627 145.5803,-275.0965 163.0334,-288 187.9706,-306.4367 197.1776,-306.6367 226.0334,-318 240.6868,-323.7705 256.669,-329.283 271.9049,-334.1834"/>
<polygon fill="#000000" stroke="#000000" points="281.7878,-337.3119 270.896,-338.5841 277.0209,-335.8029 272.2541,-334.2939 272.2541,-334.2939 272.2541,-334.2939 277.0209,-335.8029 273.6122,-330.0037 281.7878,-337.3119 281.7878,-337.3119"/>
<text text-anchor="middle" x="41.7029" y="-183" font-family="Helvetica,sans-Serif" font-size="10.00" fill="#000000">[iniciarJogo]</text>
</g>
<!-- A5&#45;&gt;A3 -->
<g id="edge29" class="edge">
<title>A5&#45;&gt;A3</title>
<path fill="none" stroke="#000000" d="M222.163,-36.1315C194.0022,-56.929 151.4343,-93.9034 133.6764,-138 116.39,-180.9255 160.4051,-221.8062 195.7841,-246.3993"/>
<polygon fill="#000000" stroke="#000000" points="204.0905,-251.9927 193.2823,-250.1397 199.9431,-249.1999 195.7958,-246.4071 195.7958,-246.4071 195.7958,-246.4071 199.9431,-249.1999 198.3093,-242.6745 204.0905,-251.9927 204.0905,-251.9927"/>
<text text-anchor="middle" x="167.2119" y="-141" font-family="Helvetica,sans-Serif" font-size="10.00" fill="#000000">[continuarJogo]</text>
</g>
<!-- A5&#45;&gt;A4 -->
<g id="edge30" class="edge">
<title>A5&#45;&gt;A4</title>
<path fill="none" stroke="#000000" d="M259.8087,-36.1914C266.6038,-46.2552 276.2135,-58.2552 287.4724,-66 303.3771,-76.9407 322.7958,-84.7022 340.9971,-90.1435"/>
<polygon fill="#000000" stroke="#000000" points="350.6652,-92.8575 339.8211,-94.4873 345.8513,-91.5061 341.0374,-90.1548 341.0374,-90.1548 341.0374,-90.1548 345.8513,-91.5061 342.2536,-85.8222 350.6652,-92.8575 350.6652,-92.8575"/>
<text text-anchor="middle" x="312.3139" y="-57" font-family="Helvetica,sans-Serif" font-size="10.00" fill="#000000">[verReplay]</text>
</g>
<!-- A6&#45;&gt;A2 -->
<g id="edge24" class="edge">
<title>A6&#45;&gt;A2</title>
<path fill="none" stroke="#000000" d="M472.5559,-190.2066C551.3298,-199.237 699.9853,-225.0159 649.0334,-288 619.3803,-324.6556 490.2278,-341.8426 408.5689,-349.1791"/>
<polygon fill="#000000" stroke="#000000" points="398.3634,-350.0671 407.9356,-344.7171 403.3446,-349.6336 408.3258,-349.2001 408.3258,-349.2001 408.3258,-349.2001 403.3446,-349.6336 408.7159,-353.6832 398.3634,-350.0671 398.3634,-350.0671"/>
<text text-anchor="middle" x="685.7029" y="-267" font-family="Helvetica,sans-Serif" font-size="10.00" fill="#000000">[iniciarJogo]</text>
</g>
<!-- A6&#45;&gt;A3 -->
<g id="edge22" class="edge">
<title>A6&#45;&gt;A3</title>
<path fill="none" stroke="#000000" d="M468.1143,-204.0596C481.7829,-212.546 491.4013,-223.1677 482.0334,-234 470.6922,-247.114 377.0044,-257.9005 308.3576,-264.1447"/>
<polygon fill="#000000" stroke="#000000" points="297.9982,-265.0701 307.5581,-259.6981 302.9783,-264.6252 307.9585,-264.1802 307.9585,-264.1802 307.9585,-264.1802 302.9783,-264.6252 308.3589,-268.6624 297.9982,-265.0701 297.9982,-265.0701"/>
<text text-anchor="middle" x="541.1529" y="-225" font-family="Helvetica,sans-Serif" font-size="10.00" fill="#000000">[enviarRespostaMinijogo]</text>
</g>
<!-- A6&#45;&gt;A3 -->
<g id="edge25" class="edge">
<title>A6&#45;&gt;A3</title>
<path fill="none" stroke="#000000" d="M381.726,-200.1166C358.0897,-207.7233 331.8272,-216.6253 320.6764,-222 311.7998,-226.2785 310.5229,-228.9975 302.0334,-234 294.6742,-238.3365 286.7562,-242.78 279.0316,-246.9996"/>
<polygon fill="#000000" stroke="#000000" points="270.0976,-251.8304 276.7536,-243.1156 274.4958,-249.4522 278.894,-247.0739 278.894,-247.0739 278.894,-247.0739 274.4958,-249.4522 281.0344,-251.0323 270.0976,-251.8304 270.0976,-251.8304"/>
<text text-anchor="middle" x="354.2119" y="-225" font-family="Helvetica,sans-Serif" font-size="10.00" fill="#000000">[continuarJogo]</text>
</g>
<!-- A6&#45;&gt;A4 -->
<g id="edge26" class="edge">
<title>A6&#45;&gt;A4</title>
<path fill="none" stroke="#000000" d="M421.1748,-167.7733C417.6012,-156.6557 412.9626,-142.2244 408.9412,-129.7132"/>
<polygon fill="#000000" stroke="#000000" points="405.8805,-120.1912 413.2248,-128.3344 407.4106,-124.9513 408.9407,-129.7115 408.9407,-129.7115 408.9407,-129.7115 407.4106,-124.9513 404.6565,-131.0885 405.8805,-120.1912 405.8805,-120.1912"/>
<text text-anchor="middle" x="440.3139" y="-141" font-family="Helvetica,sans-Serif" font-size="10.00" fill="#000000">[verReplay]</text>
</g>
<!-- A6&#45;&gt;A6 -->
<g id="edge23" class="edge">
<title>A6&#45;&gt;A6</title>
<path fill="none" stroke="#000000" d="M472.3382,-193.7015C482.7691,-193.0379 490.4314,-190.4707 490.4314,-186 490.4314,-183.136 487.2868,-181.0531 482.2842,-179.7515"/>
<polygon fill="#000000" stroke="#000000" points="472.3382,-178.2985 482.8837,-175.2914 477.2857,-179.0213 482.2332,-179.7441 482.2332,-179.7441 482.2332,-179.7441 477.2857,-179.0213 481.5827,-184.1969 472.3382,-178.2985 472.3382,-178.2985"/>
<text text-anchor="middle" x="546.5509" y="-183" font-family="Helvetica,sans-Serif" font-size="10.00" fill="#000000">[enviarRespostaMinijogo]</text>
</g>
</g>
</svg>
