<?xml version="1.0" encoding="UTF-8" standalone="no"?>
<!DOCTYPE svg PUBLIC "-//W3C//DTD SVG 1.1//EN"
 "http://www.w3.org/Graphics/SVG/1.1/DTD/svg11.dtd">
<!-- Generated by graphviz version 2.40.1 (20161225.0304)
 -->
<!-- Title: G Pages: 1 -->
<svg width="576pt" height="366pt"
 viewBox="0.00 0.00 576.31 366.00" xmlns="http://www.w3.org/2000/svg" xmlns:xlink="http://www.w3.org/1999/xlink">
<g id="graph0" class="graph" transform="scale(1 1) rotate(0) translate(4 362)">
<title>G</title>
<polygon fill="#ffffff" stroke="transparent" points="-4,4 -4,-362 572.3095,-362 572.3095,4 -4,4"/>
<!-- A0 -->
<g id="node1" class="node">
<title>A0</title>
<ellipse fill="none" stroke="#000000" cx="314.1865" cy="-347" rx="11" ry="11"/>
</g>
<!-- A1 -->
<g id="node2" class="node">
<title>A1</title>
<path fill="none" stroke="#000000" d="M360.5511,-288C360.5511,-288 267.8219,-288 267.8219,-288 261.8219,-288 255.8219,-282 255.8219,-276 255.8219,-276 255.8219,-264 255.8219,-264 255.8219,-258 261.8219,-252 267.8219,-252 267.8219,-252 360.5511,-252 360.5511,-252 366.5511,-252 372.5511,-258 372.5511,-264 372.5511,-264 372.5511,-276 372.5511,-276 372.5511,-282 366.5511,-288 360.5511,-288"/>
<text text-anchor="middle" x="314.1865" y="-267" font-family="Helvetica,sans-Serif" font-size="10.00" fill="#000000">{pedeDecisaoInicio}</text>
</g>
<!-- A0&#45;&gt;A1 -->
<g id="edge1" class="edge">
<title>A0&#45;&gt;A1</title>
<path fill="none" stroke="#000000" d="M314.1865,-335.9678C314.1865,-326.124 314.1865,-311.2813 314.1865,-298.1664"/>
<polygon fill="#000000" stroke="#000000" points="314.1865,-288.1474 318.6866,-298.1473 314.1865,-293.1474 314.1866,-298.1474 314.1866,-298.1474 314.1866,-298.1474 314.1865,-293.1474 309.6866,-298.1474 314.1865,-288.1474 314.1865,-288.1474"/>
<text text-anchor="middle" x="399.766" y="-309" font-family="Helvetica,sans-Serif" font-size="10.00" fill="#000000">[new QuatroEmLinhaMaquinaEstados]</text>
</g>
<!-- A2 -->
<g id="node3" class="node">
<title>A2</title>
<path fill="none" stroke="#000000" d="M104.5601,-204C104.5601,-204 11.8129,-204 11.8129,-204 5.8129,-204 -.1871,-198 -.1871,-192 -.1871,-192 -.1871,-180 -.1871,-180 -.1871,-174 5.8129,-168 11.8129,-168 11.8129,-168 104.5601,-168 104.5601,-168 110.5601,-168 116.5601,-174 116.5601,-180 116.5601,-180 116.5601,-192 116.5601,-192 116.5601,-198 110.5601,-204 104.5601,-204"/>
<text text-anchor="middle" x="58.1865" y="-183" font-family="Helvetica,sans-Serif" font-size="10.00" fill="#000000">{pedeConfiguracao}</text>
</g>
<!-- A1&#45;&gt;A2 -->
<g id="edge2" class="edge">
<title>A1&#45;&gt;A2</title>
<path fill="none" stroke="#000000" d="M255.9029,-254.9849C233.5463,-248.9104 207.8814,-241.5529 184.8475,-234 160.9058,-226.1495 134.8177,-216.4622 112.5737,-207.8508"/>
<polygon fill="#000000" stroke="#000000" points="102.9705,-204.108 113.9221,-203.5467 107.6292,-205.9237 112.2879,-207.7395 112.2879,-207.7395 112.2879,-207.7395 107.6292,-205.9237 110.6537,-211.9323 102.9705,-204.108 102.9705,-204.108"/>
<text text-anchor="middle" x="211.856" y="-225" font-family="Helvetica,sans-Serif" font-size="10.00" fill="#000000">[iniciarJogo]</text>
</g>
<!-- A3 -->
<g id="node4" class="node">
<title>A3</title>
<path fill="none" stroke="#000000" d="M228.0106,-120C228.0106,-120 126.3624,-120 126.3624,-120 120.3624,-120 114.3624,-114 114.3624,-108 114.3624,-108 114.3624,-96 114.3624,-96 114.3624,-90 120.3624,-84 126.3624,-84 126.3624,-84 228.0106,-84 228.0106,-84 234.0106,-84 240.0106,-90 240.0106,-96 240.0106,-96 240.0106,-108 240.0106,-108 240.0106,-114 234.0106,-120 228.0106,-120"/>
<text text-anchor="middle" x="177.1865" y="-99" font-family="Helvetica,sans-Serif" font-size="10.00" fill="#000000">{pedeDecisaoJogada}</text>
</g>
<!-- A1&#45;&gt;A3 -->
<g id="edge3" class="edge">
<title>A1&#45;&gt;A3</title>
<path fill="none" stroke="#000000" d="M299.6623,-251.8532C289.1099,-238.6296 274.5152,-220.2592 261.8295,-204 239.0855,-174.8493 235.1654,-166.1437 211.1865,-138 208.364,-134.6872 205.3281,-131.2769 202.2738,-127.937"/>
<polygon fill="#000000" stroke="#000000" points="195.2048,-120.3512 205.3145,-124.5993 198.6136,-124.0092 202.0223,-127.6672 202.0223,-127.6672 202.0223,-127.6672 198.6136,-124.0092 198.7301,-130.735 195.2048,-120.3512 195.2048,-120.3512"/>
<text text-anchor="middle" x="296.365" y="-183" font-family="Helvetica,sans-Serif" font-size="10.00" fill="#000000">[continuarJogo]</text>
</g>
<!-- A4 -->
<g id="node5" class="node">
<title>A4</title>
<path fill="none" stroke="#000000" d="M425.2764,-204C425.2764,-204 351.0966,-204 351.0966,-204 345.0966,-204 339.0966,-198 339.0966,-192 339.0966,-192 339.0966,-180 339.0966,-180 339.0966,-174 345.0966,-168 351.0966,-168 351.0966,-168 425.2764,-168 425.2764,-168 431.2764,-168 437.2764,-174 437.2764,-180 437.2764,-180 437.2764,-192 437.2764,-192 437.2764,-198 431.2764,-204 425.2764,-204"/>
<text text-anchor="middle" x="388.1865" y="-183" font-family="Helvetica,sans-Serif" font-size="10.00" fill="#000000">{assisteJogada}</text>
</g>
<!-- A1&#45;&gt;A4 -->
<g id="edge4" class="edge">
<title>A1&#45;&gt;A4</title>
<path fill="none" stroke="#000000" d="M310.4893,-251.8169C309.5339,-242.2366 310.0459,-230.7029 315.6255,-222 319.3991,-216.114 324.4439,-211.1565 330.1237,-206.9887"/>
<polygon fill="#000000" stroke="#000000" points="338.8256,-201.4314 332.8198,-210.6063 334.6117,-204.1226 330.3977,-206.8138 330.3977,-206.8138 330.3977,-206.8138 334.6117,-204.1226 327.9756,-203.0212 338.8256,-201.4314 338.8256,-201.4314"/>
<text text-anchor="middle" x="340.467" y="-225" font-family="Helvetica,sans-Serif" font-size="10.00" fill="#000000">[verReplay]</text>
</g>
<!-- A2&#45;&gt;A2 -->
<g id="edge7" class="edge">
<title>A2&#45;&gt;A2</title>
<path fill="none" stroke="#000000" d="M116.6413,-193.4131C127.0809,-192.4495 134.373,-189.9785 134.373,-186 134.373,-183.5134 131.5245,-181.6157 126.8395,-180.3069"/>
<polygon fill="#000000" stroke="#000000" points="116.6413,-178.5869 127.2505,-175.8127 121.5717,-179.4185 126.5021,-180.25 126.5021,-180.25 126.5021,-180.25 121.5717,-179.4185 125.7537,-184.6874 116.6413,-178.5869 116.6413,-178.5869"/>
<text text-anchor="middle" x="175.495" y="-183" font-family="Helvetica,sans-Serif" font-size="10.00" fill="#000000">[adicionarJogador]</text>
</g>
<!-- A2&#45;&gt;A3 -->
<g id="edge8" class="edge">
<title>A2&#45;&gt;A3</title>
<path fill="none" stroke="#000000" d="M83.715,-167.9799C101.0081,-155.773 124.0589,-139.5019 142.9423,-126.1724"/>
<polygon fill="#000000" stroke="#000000" points="151.2896,-120.2801 145.715,-129.7234 147.2048,-123.1636 143.1199,-126.047 143.1199,-126.047 143.1199,-126.047 147.2048,-123.1636 140.5248,-122.3707 151.2896,-120.2801 151.2896,-120.2801"/>
<text text-anchor="middle" x="166.3085" y="-141" font-family="Helvetica,sans-Serif" font-size="10.00" fill="#000000">[adicionarJogador]</text>
</g>
<!-- A3&#45;&gt;A3 -->
<g id="edge9" class="edge">
<title>A3&#45;&gt;A3</title>
<path fill="none" stroke="#000000" d="M240.286,-104.4398C250.8258,-104.0984 258.0985,-103.2852 258.0985,-102 258.0985,-101.1968 255.2576,-100.5779 250.5537,-100.1433"/>
<polygon fill="#000000" stroke="#000000" points="240.286,-99.5602 250.5251,-95.6345 245.278,-99.8438 250.2699,-100.1273 250.2699,-100.1273 250.2699,-100.1273 245.278,-99.8438 250.0147,-104.6201 240.286,-99.5602 240.286,-99.5602"/>
<text text-anchor="middle" x="284.213" y="-99" font-family="Helvetica,sans-Serif" font-size="10.00" fill="#000000">[jogarFicha]</text>
</g>
<!-- A3&#45;&gt;A3 -->
<g id="edge12" class="edge">
<title>A3&#45;&gt;A3</title>
<path fill="none" stroke="#000000" d="M240.122,-107.0805C275.4767,-107.8224 310.3275,-106.1289 310.3275,-102 310.3275,-98.2743 281.9511,-96.5316 250.4334,-96.7718"/>
<polygon fill="#000000" stroke="#000000" points="240.122,-96.9195 250.0565,-92.2767 245.1215,-96.8479 250.121,-96.7762 250.121,-96.7762 250.121,-96.7762 245.1215,-96.8479 250.1855,-101.2757 240.122,-96.9195 240.122,-96.9195"/>
<text text-anchor="middle" x="340.622" y="-99" font-family="Helvetica,sans-Serif" font-size="10.00" fill="#000000">[undoJogada]</text>
</g>
<!-- A3&#45;&gt;A3 -->
<g id="edge13" class="edge">
<title>A3&#45;&gt;A3</title>
<path fill="none" stroke="#000000" d="M240.384,-108.8132C298.5974,-111.4488 370.9165,-109.1777 370.9165,-102 370.9165,-95.2288 306.5578,-92.8242 250.3958,-94.7861"/>
<polygon fill="#000000" stroke="#000000" points="240.384,-95.1868 250.1961,-90.2904 245.38,-94.9868 250.376,-94.7868 250.376,-94.7868 250.376,-94.7868 245.38,-94.9868 250.556,-99.2832 240.384,-95.1868 240.384,-95.1868"/>
<text text-anchor="middle" x="415.923" y="-99" font-family="Helvetica,sans-Serif" font-size="10.00" fill="#000000">[jogarFichaEspecial]</text>
</g>
<!-- A5 -->
<g id="node6" class="node">
<title>A5</title>
<path fill="none" stroke="#000000" d="M394.8692,-36C394.8692,-36 349.5038,-36 349.5038,-36 343.5038,-36 337.5038,-30 337.5038,-24 337.5038,-24 337.5038,-12 337.5038,-12 337.5038,-6 343.5038,0 349.5038,0 349.5038,0 394.8692,0 394.8692,0 400.8692,0 406.8692,-6 406.8692,-12 406.8692,-12 406.8692,-24 406.8692,-24 406.8692,-30 400.8692,-36 394.8692,-36"/>
<text text-anchor="middle" x="372.1865" y="-15" font-family="Helvetica,sans-Serif" font-size="10.00" fill="#000000">{fimJogo}</text>
</g>
<!-- A3&#45;&gt;A5 -->
<g id="edge10" class="edge">
<title>A3&#45;&gt;A5</title>
<path fill="none" stroke="#000000" d="M240.3164,-94.8954C282.5119,-89.0348 333.2757,-79.4832 350.1865,-66 356.7381,-60.7763 361.4159,-53.1635 364.7227,-45.5336"/>
<polygon fill="#000000" stroke="#000000" points="368.216,-36.0384 368.9864,-46.9772 366.4896,-40.7309 364.7632,-45.4234 364.7632,-45.4234 364.7632,-45.4234 366.4896,-40.7309 360.5399,-43.8696 368.216,-36.0384 368.216,-36.0384"/>
<text text-anchor="middle" x="386.301" y="-57" font-family="Helvetica,sans-Serif" font-size="10.00" fill="#000000">[jogarFicha]</text>
</g>
<!-- A3&#45;&gt;A5 -->
<g id="edge14" class="edge">
<title>A3&#45;&gt;A5</title>
<path fill="none" stroke="#000000" d="M232.7747,-83.9334C247.9859,-78.5708 264.3615,-72.4061 279.1865,-66 296.3359,-58.5895 314.7119,-49.3886 330.5626,-41.0309"/>
<polygon fill="#000000" stroke="#000000" points="339.5752,-36.2273 332.867,-44.902 335.1628,-38.5791 330.7504,-40.9309 330.7504,-40.9309 330.7504,-40.9309 335.1628,-38.5791 328.6338,-36.9597 339.5752,-36.2273 339.5752,-36.2273"/>
<text text-anchor="middle" x="321.7975" y="-57" font-family="Helvetica,sans-Serif" font-size="10.00" fill="#000000">[desistir]</text>
</g>
<!-- A6 -->
<g id="node7" class="node">
<title>A6</title>
<path fill="none" stroke="#000000" d="M146.4827,-36C146.4827,-36 79.8903,-36 79.8903,-36 73.8903,-36 67.8903,-30 67.8903,-24 67.8903,-24 67.8903,-12 67.8903,-12 67.8903,-6 73.8903,0 79.8903,0 79.8903,0 146.4827,0 146.4827,0 152.4827,0 158.4827,-6 158.4827,-12 158.4827,-12 158.4827,-24 158.4827,-24 158.4827,-30 152.4827,-36 146.4827,-36"/>
<text text-anchor="middle" x="113.1865" y="-15" font-family="Helvetica,sans-Serif" font-size="10.00" fill="#000000">{jogaMinijogo}</text>
</g>
<!-- A3&#45;&gt;A6 -->
<g id="edge11" class="edge">
<title>A3&#45;&gt;A6</title>
<path fill="none" stroke="#000000" d="M114.2343,-84.1667C99.5183,-78.6923 86.8256,-72.4114 82.4025,-66 77.6345,-59.0888 79.4046,-51.4885 83.904,-44.4143"/>
<polygon fill="#000000" stroke="#000000" points="90.2114,-36.4242 87.5473,-47.0616 87.1133,-40.3488 84.0152,-44.2733 84.0152,-44.2733 84.0152,-44.2733 87.1133,-40.3488 80.4831,-41.4851 90.2114,-36.4242 90.2114,-36.4242"/>
<text text-anchor="middle" x="119.5785" y="-57" font-family="Helvetica,sans-Serif" font-size="10.00" fill="#000000">[aceitarMinijogo]</text>
</g>
<!-- A4&#45;&gt;A1 -->
<g id="edge6" class="edge">
<title>A4&#45;&gt;A1</title>
<path fill="none" stroke="#000000" d="M382.4945,-204.1757C378.8774,-213.7538 373.4876,-225.2878 366.1865,-234 362.6602,-238.2078 358.5277,-242.1453 354.1603,-245.7574"/>
<polygon fill="#000000" stroke="#000000" points="346.1256,-251.8961 351.3398,-242.2492 350.0987,-248.8606 354.0718,-245.825 354.0718,-245.825 354.0718,-245.825 350.0987,-248.8606 356.8038,-249.4008 346.1256,-251.8961 346.1256,-251.8961"/>
<text text-anchor="middle" x="394.748" y="-225" font-family="Helvetica,sans-Serif" font-size="10.00" fill="#000000">[avancar]</text>
</g>
<!-- A4&#45;&gt;A4 -->
<g id="edge5" class="edge">
<title>A4&#45;&gt;A4</title>
<path fill="none" stroke="#000000" d="M437.4827,-193.6207C447.9338,-192.8469 455.481,-190.3066 455.481,-186 455.481,-183.2411 452.3836,-181.207 447.4096,-179.898"/>
<polygon fill="#000000" stroke="#000000" points="437.4827,-178.3793 448.0482,-175.4434 442.4251,-179.1354 447.3676,-179.8916 447.3676,-179.8916 447.3676,-179.8916 442.4251,-179.1354 446.6871,-184.3399 437.4827,-178.3793 437.4827,-178.3793"/>
<text text-anchor="middle" x="476.0425" y="-183" font-family="Helvetica,sans-Serif" font-size="10.00" fill="#000000">[avancar]</text>
</g>
<!-- A5&#45;&gt;A1 -->
<g id="edge17" class="edge">
<title>A5&#45;&gt;A1</title>
<path fill="none" stroke="#000000" d="M406.9046,-24.5462C438.6674,-32.5751 483.8584,-49.6063 505.1865,-84 533.2938,-129.3258 536.0699,-160.5182 505.1865,-204 490.4567,-224.7386 431.13,-243.1594 382.4559,-255.234"/>
<polygon fill="#000000" stroke="#000000" points="372.5657,-257.6379 381.2199,-250.9033 377.4242,-256.457 382.2828,-255.276 382.2828,-255.276 382.2828,-255.276 377.4242,-256.457 383.3456,-259.6487 372.5657,-257.6379 372.5657,-257.6379"/>
<text text-anchor="middle" x="547.748" y="-141" font-family="Helvetica,sans-Serif" font-size="10.00" fill="#000000">[avancar]</text>
</g>
<!-- A6&#45;&gt;A3 -->
<g id="edge15" class="edge">
<title>A6&#45;&gt;A3</title>
<path fill="none" stroke="#000000" d="M138.0117,-36.192C144.1391,-41.4679 150.3303,-47.5583 155.1865,-54 159.8149,-60.1396 163.772,-67.4087 167.0009,-74.4081"/>
<polygon fill="#000000" stroke="#000000" points="170.9473,-83.6541 162.8829,-76.2233 168.9845,-79.0555 167.0217,-74.4568 167.0217,-74.4568 167.0217,-74.4568 168.9845,-79.0555 171.1605,-72.6903 170.9473,-83.6541 170.9473,-83.6541"/>
<text text-anchor="middle" x="219.306" y="-57" font-family="Helvetica,sans-Serif" font-size="10.00" fill="#000000">[enviarRespostaMinijogo]</text>
</g>
<!-- A6&#45;&gt;A6 -->
<g id="edge16" class="edge">
<title>A6&#45;&gt;A6</title>
<path fill="none" stroke="#000000" d="M158.4914,-25.7015C168.9222,-25.0379 176.5845,-22.4707 176.5845,-18 176.5845,-15.136 173.4399,-13.0531 168.4373,-11.7515"/>
<polygon fill="#000000" stroke="#000000" points="158.4914,-10.2985 169.0369,-7.2914 163.4389,-11.0213 168.3863,-11.7441 168.3863,-11.7441 168.3863,-11.7441 163.4389,-11.0213 167.7358,-16.1969 158.4914,-10.2985 158.4914,-10.2985"/>
<text text-anchor="middle" x="232.704" y="-15" font-family="Helvetica,sans-Serif" font-size="10.00" fill="#000000">[enviarRespostaMinijogo]</text>
</g>
</g>
</svg>
